<svg viewBox="0 0 500 500" xmlns="http://www.w3.org/2000/svg"><path d="m0 382.4h500v.25h-500z" fill="#ebebeb"/><path d="m416.78 398.49h33.12v.25h-33.12z" fill="#ebebeb"/><path d="m322.53 401.21h8.69v.25h-8.69z" fill="#ebebeb"/><path d="m396.59 389.21h19.19v.25h-19.19z" fill="#ebebeb"/><path d="m52.46 390.89h43.19v.25h-43.19z" fill="#ebebeb"/><path d="m104.56 390.89h6.33v.25h-6.33z" fill="#ebebeb"/><path d="m131.47 395.11h93.68v.25h-93.68z" fill="#ebebeb"/><path d="m237 337.8h-193.09a5.71 5.71 0 0 1 -5.7-5.71v-271.43a5.71 5.71 0 0 1 5.7-5.66h193.09a5.71 5.71 0 0 1 5.71 5.71v271.38a5.71 5.71 0 0 1 -5.71 5.71zm-193.09-282.6a5.46 5.46 0 0 0 -5.45 5.46v271.43a5.46 5.46 0 0 0 5.45 5.46h193.09a5.47 5.47 0 0 0 5.46-5.46v-271.43a5.47 5.47 0 0 0 -5.46-5.46z" fill="#ebebeb"/><path d="m453.31 337.8h-193.1a5.72 5.72 0 0 1 -5.71-5.71v-271.43a5.72 5.72 0 0 1 5.71-5.66h193.1a5.71 5.71 0 0 1 5.69 5.66v271.43a5.71 5.71 0 0 1 -5.69 5.71zm-193.1-282.6a5.47 5.47 0 0 0 -5.46 5.46v271.43a5.47 5.47 0 0 0 5.46 5.46h193.1a5.47 5.47 0 0 0 5.46-5.46v-271.43a5.47 5.47 0 0 0 -5.46-5.46z" fill="#ebebeb"/><path d="m200.35 78.8h242.28v233.54h-242.28z" fill="#e0e0e0"/><path d="m200.35 83.04h238.39v225.22h-238.39z" fill="#f5f5f5"/><path d="m436.98 253.72v-67.75h-7.04v-8.94l-15.83-7.41v-9.16h-2.64v25.51h-2.64v67.75h-3.52v-35.2h-7.92v-18.47h-2.64v53.67h-6.15v-20.24h-4.4v-5.28h-9.68v-18.47h-5.28v-12.32h-6.16v-18.48h-2.64v18.48h-6.16v12.32h-5.28v18.47h-9.67v5.28h-4.4v20.24h-5.28v-25.52h-9.68v-56.3h-2.64v-6.16h-21.11v6.16h-4.4v40.47h-17.6v4.39h-6.16v2.64h6.16v15.84h-18.47v-52.79h-3.52v-10.55h-8.8v-40.47h-2.64v40.47h-6.16v10.55h-34.28v125.81h238.39v-54.54z" fill="#e6e6e6"/><g fill="#f0f0f0"><path d="m218.67 185.21h2.49v2.49h-2.49z"/><path d="m218.67 189.39h2.49v2.49h-2.49z"/><path d="m218.67 206.11h2.49v2.49h-2.49z"/><path d="m218.67 210.29h2.49v2.49h-2.49z"/><path d="m218.67 214.46h2.49v2.49h-2.49z"/><path d="m218.67 227h2.49v2.49h-2.49z"/><path d="m218.67 231.18h2.49v2.49h-2.49z"/><path d="m222.63 201.93h2.49v2.49h-2.49z"/><path d="m222.63 206.11h2.49v2.49h-2.49z"/><path d="m222.63 210.29h2.49v2.49h-2.49z"/><path d="m222.63 214.46h2.49v2.49h-2.49z"/><path d="m222.63 218.64h2.49v2.49h-2.49z"/><path d="m222.63 227h2.49v2.49h-2.49z"/><path d="m222.63 231.18h2.49v2.49h-2.49z"/><path d="m226.59 185.21h2.49v2.49h-2.49z"/><path d="m226.59 189.39h2.49v2.49h-2.49z"/><path d="m226.59 193.57h2.49v2.49h-2.49z"/><path d="m226.59 197.75h2.49v2.49h-2.49z"/><path d="m226.59 201.93h2.49v2.49h-2.49z"/><path d="m226.59 206.11h2.49v2.49h-2.49z"/><path d="m226.59 210.29h2.49v2.49h-2.49z"/><path d="m226.59 214.46h2.49v2.49h-2.49z"/><path d="m226.59 218.64h2.49v2.49h-2.49z"/><path d="m226.59 222.82h2.49v2.49h-2.49z"/><path d="m226.59 231.18h2.49v2.49h-2.49z"/><path d="m230.55 185.21h2.49v2.49h-2.49z"/><path d="m230.55 189.39h2.49v2.49h-2.49z"/><path d="m230.55 193.57h2.49v2.49h-2.49z"/><path d="m230.55 197.75h2.49v2.49h-2.49z"/><path d="m230.55 201.93h2.49v2.49h-2.49z"/><path d="m230.55 206.11h2.49v2.49h-2.49z"/><path d="m230.55 210.29h2.49v2.49h-2.49z"/><path d="m230.55 247.9h2.49v2.49h-2.49z"/><path d="m234.51 185.21h2.49v2.49h-2.49z"/><path d="m234.51 189.39h2.49v2.49h-2.49z"/><path d="m234.51 193.57h2.49v2.49h-2.49z"/><path d="m234.51 197.75h2.49v2.49h-2.49z"/><path d="m234.51 201.93h2.49v2.49h-2.49z"/><path d="m234.51 206.11h2.49v2.49h-2.49z"/><path d="m234.51 210.29h2.49v2.49h-2.49z"/><path d="m234.51 214.46h2.49v2.49h-2.49z"/><path d="m234.51 239.54h2.49v2.49h-2.49z"/><path d="m234.51 243.72h2.49v2.49h-2.49z"/><path d="m234.51 247.9h2.49v2.49h-2.49z"/><path d="m234.51 252.08h2.49v2.49h-2.49z"/><path d="m234.51 268.79h2.49v2.49h-2.49z"/><path d="m238.46 185.21h2.49v2.49h-2.49z"/><path d="m238.46 189.39h2.49v2.49h-2.49z"/><path d="m238.46 193.57h2.49v2.49h-2.49z"/><path d="m238.46 197.75h2.49v2.49h-2.49z"/><path d="m238.46 201.93h2.49v2.49h-2.49z"/><path d="m238.46 206.11h2.49v2.49h-2.49z"/><path d="m238.46 210.29h2.49v2.49h-2.49z"/><path d="m238.46 214.46h2.49v2.49h-2.49z"/><path d="m238.46 218.64h2.49v2.49h-2.49z"/><path d="m238.46 222.82h2.49v2.49h-2.49z"/><path d="m238.46 235.36h2.49v2.49h-2.49z"/><path d="m238.46 239.54h2.49v2.49h-2.49z"/><path d="m238.46 243.72h2.49v2.49h-2.49z"/><path d="m238.46 247.9h2.49v2.49h-2.49z"/><path d="m238.46 252.08h2.49v2.49h-2.49z"/><path d="m238.46 268.79h2.49v2.49h-2.49z"/><path d="m242.42 185.21h2.49v2.49h-2.49z"/><path d="m242.42 189.39h2.49v2.49h-2.49z"/><path d="m242.42 193.57h2.49v2.49h-2.49z"/><path d="m242.42 197.75h2.49v2.49h-2.49z"/><path d="m242.42 201.93h2.49v2.49h-2.49z"/><path d="m242.42 206.11h2.49v2.49h-2.49z"/><path d="m242.42 210.29h2.49v2.49h-2.49z"/><path d="m242.42 214.46h2.49v2.49h-2.49z"/><path d="m242.42 218.64h2.49v2.49h-2.49z"/><path d="m242.42 222.82h2.49v2.49h-2.49z"/><path d="m242.42 227h2.49v2.49h-2.49z"/><path d="m242.42 231.18h2.49v2.49h-2.49z"/><path d="m242.42 235.36h2.49v2.49h-2.49z"/><path d="m242.42 239.54h2.49v2.49h-2.49z"/><path d="m242.42 243.72h2.49v2.49h-2.49z"/><path d="m242.42 247.9h2.49v2.49h-2.49z"/><path d="m242.42 252.08h2.49v2.49h-2.49z"/><path d="m242.42 256.25h2.49v2.49h-2.49z"/><path d="m246.38 185.21h2.49v2.49h-2.49z"/><path d="m246.38 189.39h2.49v2.49h-2.49z"/><path d="m246.38 193.57h2.49v2.49h-2.49z"/><path d="m246.38 197.75h2.49v2.49h-2.49z"/><path d="m246.38 201.93h2.49v2.49h-2.49z"/><path d="m246.38 206.11h2.49v2.49h-2.49z"/><path d="m246.38 210.29h2.49v2.49h-2.49z"/><path d="m246.38 214.46h2.49v2.49h-2.49z"/><path d="m246.38 218.64h2.49v2.49h-2.49z"/><path d="m246.38 222.82h2.49v2.49h-2.49z"/><path d="m246.38 235.36h2.49v2.49h-2.49z"/><path d="m246.38 239.54h2.49v2.49h-2.49z"/><path d="m246.38 243.72h2.49v2.49h-2.49z"/><path d="m246.38 247.9h2.49v2.49h-2.49z"/><path d="m250.34 185.21h2.49v2.49h-2.49z"/><path d="m250.34 189.39h2.49v2.49h-2.49z"/><path d="m250.34 193.57h2.49v2.49h-2.49z"/><path d="m250.34 197.75h2.49v2.49h-2.49z"/><path d="m250.34 201.93h2.49v2.49h-2.49z"/><path d="m250.34 206.11h2.49v2.49h-2.49z"/><path d="m250.34 210.29h2.49v2.49h-2.49z"/><path d="m250.34 214.46h2.49v2.49h-2.49z"/><path d="m250.34 218.64h2.49v2.49h-2.49z"/><path d="m250.34 222.82h2.49v2.49h-2.49z"/><path d="m250.34 235.36h2.49v2.49h-2.49z"/><path d="m250.34 239.54h2.49v2.49h-2.49z"/><path d="m250.34 243.72h2.49v2.49h-2.49z"/><path d="m294.92 174.36h2.49v2.49h-2.49z"/><path d="m294.92 178.54h2.49v2.49h-2.49z"/><path d="m294.92 182.72h2.49v2.49h-2.49z"/><path d="m294.92 186.9h2.49v2.49h-2.49z"/><path d="m294.92 191.08h2.49v2.49h-2.49z"/><path d="m294.92 195.26h2.49v2.49h-2.49z"/><path d="m294.92 199.43h2.49v2.49h-2.49z"/><path d="m294.92 203.61h2.49v2.49h-2.49z"/><path d="m294.92 216.15h2.49v2.49h-2.49z"/><path d="m294.92 220.33h2.49v2.49h-2.49z"/><path d="m298.88 174.36h2.49v2.49h-2.49z"/><path d="m298.88 178.54h2.49v2.49h-2.49z"/><path d="m298.88 182.72h2.49v2.49h-2.49z"/><path d="m298.88 186.9h2.49v2.49h-2.49z"/><path d="m298.88 191.08h2.49v2.49h-2.49z"/><path d="m298.88 195.26h2.49v2.49h-2.49z"/><path d="m298.88 199.43h2.49v2.49h-2.49z"/><path d="m298.88 203.61h2.49v2.49h-2.49z"/><path d="m298.88 220.33h2.49v2.49h-2.49z"/><path d="m302.83 174.36h2.49v2.49h-2.49z"/><path d="m302.83 178.54h2.49v2.49h-2.49z"/><path d="m302.83 182.72h2.49v2.49h-2.49z"/><path d="m302.83 186.9h2.49v2.49h-2.49z"/><path d="m302.83 191.08h2.49v2.49h-2.49z"/><path d="m302.83 195.26h2.49v2.49h-2.49z"/><path d="m302.83 199.43h2.49v2.49h-2.49z"/><path d="m302.83 203.61h2.49v2.49h-2.49z"/><path d="m306.79 174.36h2.49v2.49h-2.49z"/><path d="m306.79 178.54h2.49v2.49h-2.49z"/><path d="m306.79 182.72h2.49v2.49h-2.49z"/><path d="m306.79 186.9h2.49v2.49h-2.49z"/><path d="m306.79 191.08h2.49v2.49h-2.49z"/><path d="m306.79 195.26h2.49v2.49h-2.49z"/><path d="m306.79 203.61h2.49v2.49h-2.49z"/><path d="m306.79 207.79h2.49v2.49h-2.49z"/><path d="m306.79 220.33h2.49v2.49h-2.49z"/><path d="m306.79 224.51h2.49v2.49h-2.49z"/><path d="m306.79 228.69h2.49v2.49h-2.49z"/><path d="m306.79 232.87h2.49v2.49h-2.49z"/><path d="m306.79 237.05h2.49v2.49h-2.49z"/><path d="m306.79 241.22h2.49v2.49h-2.49z"/><path d="m306.79 245.4h2.49v2.49h-2.49z"/><path d="m310.75 174.36h2.49v2.49h-2.49z"/><path d="m310.75 178.54h2.49v2.49h-2.49z"/><path d="m310.75 182.72h2.49v2.49h-2.49z"/><path d="m310.75 186.9h2.49v2.49h-2.49z"/><path d="m310.75 191.08h2.49v2.49h-2.49z"/><path d="m310.75 195.26h2.49v2.49h-2.49z"/><path d="m310.75 207.79h2.49v2.49h-2.49z"/><path d="m310.75 211.97h2.49v2.49h-2.49z"/><path d="m310.75 216.15h2.49v2.49h-2.49z"/><path d="m310.75 220.33h2.49v2.49h-2.49z"/><path d="m310.75 224.51h2.49v2.49h-2.49z"/><path d="m310.75 228.69h2.49v2.49h-2.49z"/><path d="m310.75 232.87h2.49v2.49h-2.49z"/><path d="m310.75 237.05h2.49v2.49h-2.49z"/><path d="m310.75 241.22h2.49v2.49h-2.49z"/><path d="m310.75 245.4h2.49v2.49h-2.49z"/><path d="m310.75 249.58h2.49v2.49h-2.49z"/><path d="m310.75 257.94h2.49v2.49h-2.49z"/><path d="m314.71 174.36h2.49v2.49h-2.49z"/><path d="m314.71 178.54h2.49v2.49h-2.49z"/><path d="m314.71 182.72h2.49v2.49h-2.49z"/><path d="m314.71 186.9h2.49v2.49h-2.49z"/><path d="m314.71 191.08h2.49v2.49h-2.49z"/><path d="m314.71 195.26h2.49v2.49h-2.49z"/><path d="m314.71 207.79h2.49v2.49h-2.49z"/><path d="m314.71 211.97h2.49v2.49h-2.49z"/><path d="m314.71 216.15h2.49v2.49h-2.49z"/><path d="m314.71 220.33h2.49v2.49h-2.49z"/><path d="m314.71 232.87h2.49v2.49h-2.49z"/><path d="m314.71 237.05h2.49v2.49h-2.49z"/><path d="m314.71 241.22h2.49v2.49h-2.49z"/><path d="m314.71 245.4h2.49v2.49h-2.49z"/><path d="m314.71 249.58h2.49v2.49h-2.49z"/><path d="m314.71 257.94h2.49v2.49h-2.49z"/><path d="m314.71 262.12h2.49v2.49h-2.49z"/><path d="m350.64 213.22h2.49v2.49h-2.49z"/><path d="m350.64 217.4h2.49v2.49h-2.49z"/><path d="m350.64 221.58h2.49v2.49h-2.49z"/><path d="m350.64 225.76h2.49v2.49h-2.49z"/><path d="m350.64 229.93h2.49v2.49h-2.49z"/><path d="m350.64 234.11h2.49v2.49h-2.49z"/><path d="m350.64 238.29h2.49v2.49h-2.49z"/><path d="m350.64 250.83h2.49v2.49h-2.49z"/><path d="m350.64 255.01h2.49v2.49h-2.49z"/><path d="m350.64 259.19h2.49v2.49h-2.49z"/><path d="m354.6 213.22h2.49v2.49h-2.49z"/><path d="m354.6 217.4h2.49v2.49h-2.49z"/><path d="m354.6 221.58h2.49v2.49h-2.49z"/><path d="m354.6 225.76h2.49v2.49h-2.49z"/><path d="m354.6 229.93h2.49v2.49h-2.49z"/><path d="m354.6 234.11h2.49v2.49h-2.49z"/><path d="m354.6 238.29h2.49v2.49h-2.49z"/><path d="m358.55 213.22h2.49v2.49h-2.49z"/><path d="m358.55 217.4h2.49v2.49h-2.49z"/><path d="m358.55 221.58h2.49v2.49h-2.49z"/><path d="m358.55 225.76h2.49v2.49h-2.49z"/><path d="m358.55 229.93h2.49v2.49h-2.49z"/><path d="m358.55 234.11h2.49v2.49h-2.49z"/><path d="m358.55 238.29h2.49v2.49h-2.49z"/><path d="m362.51 213.22h2.49v2.49h-2.49z"/><path d="m362.51 217.4h2.49v2.49h-2.49z"/><path d="m362.51 221.58h2.49v2.49h-2.49z"/><path d="m362.51 225.76h2.49v2.49h-2.49z"/><path d="m362.51 229.93h2.49v2.49h-2.49z"/><path d="m362.51 234.11h2.49v2.49h-2.49z"/><path d="m362.51 238.29h2.49v2.49h-2.49z"/><path d="m362.51 242.47h2.49v2.49h-2.49z"/><path d="m362.51 246.65h2.49v2.49h-2.49z"/><path d="m362.51 250.83h2.49v2.49h-2.49z"/><path d="m362.51 255.01h2.49v2.49h-2.49z"/><path d="m366.47 213.22h2.49v2.49h-2.49z"/><path d="m366.47 217.4h2.49v2.49h-2.49z"/><path d="m366.47 221.58h2.49v2.49h-2.49z"/><path d="m366.47 225.76h2.49v2.49h-2.49z"/><path d="m366.47 229.93h2.49v2.49h-2.49z"/><path d="m366.47 234.11h2.49v2.49h-2.49z"/><path d="m366.47 238.29h2.49v2.49h-2.49z"/><path d="m366.47 242.47h2.49v2.49h-2.49z"/><path d="m366.47 246.65h2.49v2.49h-2.49z"/><path d="m366.47 250.83h2.49v2.49h-2.49z"/><path d="m366.47 255.01h2.49v2.49h-2.49z"/><path d="m366.47 259.19h2.49v2.49h-2.49z"/><path d="m366.47 271.72h2.49v2.49h-2.49z"/><path d="m366.47 275.9h2.49v2.49h-2.49z"/><path d="m370.43 213.22h2.49v2.49h-2.49z"/><path d="m370.43 217.4h2.49v2.49h-2.49z"/><path d="m370.43 221.58h2.49v2.49h-2.49z"/><path d="m370.43 234.11h2.49v2.49h-2.49z"/><path d="m370.43 238.29h2.49v2.49h-2.49z"/><path d="m370.43 242.47h2.49v2.49h-2.49z"/><path d="m370.43 246.65h2.49v2.49h-2.49z"/><path d="m370.43 250.83h2.49v2.49h-2.49z"/><path d="m370.43 255.01h2.49v2.49h-2.49z"/><path d="m370.43 259.19h2.49v2.49h-2.49z"/><path d="m370.43 271.72h2.49v2.49h-2.49z"/><path d="m370.43 275.9h2.49v2.49h-2.49z"/><path d="m370.43 280.08h2.49v2.49h-2.49z"/><path d="m411.93 188.14h2.49v2.49h-2.49z"/><path d="m411.93 192.32h2.49v2.49h-2.49z"/><path d="m411.93 196.5h2.49v2.49h-2.49z"/><path d="m411.93 200.68h2.49v2.49h-2.49z"/><path d="m411.93 204.86h2.49v2.49h-2.49z"/><path d="m411.93 209.04h2.49v2.49h-2.49z"/><path d="m411.93 213.22h2.49v2.49h-2.49z"/><path d="m411.93 217.4h2.49v2.49h-2.49z"/><path d="m411.93 221.58h2.49v2.49h-2.49z"/><path d="m411.93 225.76h2.49v2.49h-2.49z"/><path d="m411.93 229.93h2.49v2.49h-2.49z"/><path d="m411.93 234.11h2.49v2.49h-2.49z"/><path d="m411.93 238.29h2.49v2.49h-2.49z"/><path d="m411.93 242.47h2.49v2.49h-2.49z"/><path d="m411.93 246.65h2.49v2.49h-2.49z"/><path d="m411.93 250.83h2.49v2.49h-2.49z"/><path d="m411.93 255.01h2.49v2.49h-2.49z"/><path d="m411.93 259.19h2.49v2.49h-2.49z"/><path d="m411.93 263.37h2.49v2.49h-2.49z"/><path d="m411.93 267.54h2.49v2.49h-2.49z"/><path d="m411.93 271.72h2.49v2.49h-2.49z"/><path d="m411.93 275.9h2.49v2.49h-2.49z"/><path d="m411.93 280.08h2.49v2.49h-2.49z"/><path d="m415.89 188.14h2.49v2.49h-2.49z"/><path d="m415.89 192.32h2.49v2.49h-2.49z"/><path d="m415.89 196.5h2.49v2.49h-2.49z"/><path d="m415.89 200.68h2.49v2.49h-2.49z"/><path d="m415.89 204.86h2.49v2.49h-2.49z"/><path d="m415.89 209.04h2.49v2.49h-2.49z"/><path d="m415.89 213.22h2.49v2.49h-2.49z"/><path d="m415.89 217.4h2.49v2.49h-2.49z"/><path d="m415.89 221.58h2.49v2.49h-2.49z"/><path d="m415.89 225.76h2.49v2.49h-2.49z"/><path d="m415.89 229.93h2.49v2.49h-2.49z"/><path d="m415.89 234.11h2.49v2.49h-2.49z"/><path d="m415.89 238.29h2.49v2.49h-2.49z"/><path d="m415.89 242.47h2.49v2.49h-2.49z"/><path d="m415.89 246.65h2.49v2.49h-2.49z"/><path d="m415.89 250.83h2.49v2.49h-2.49z"/><path d="m415.89 255.01h2.49v2.49h-2.49z"/><path d="m415.89 259.19h2.49v2.49h-2.49z"/><path d="m415.89 263.37h2.49v2.49h-2.49z"/><path d="m419.85 188.14h2.49v2.49h-2.49z"/><path d="m419.85 192.32h2.49v2.49h-2.49z"/><path d="m419.85 196.5h2.49v2.49h-2.49z"/><path d="m419.85 200.68h2.49v2.49h-2.49z"/><path d="m419.85 204.86h2.49v2.49h-2.49z"/><path d="m419.85 209.04h2.49v2.49h-2.49z"/><path d="m419.85 213.22h2.49v2.49h-2.49z"/><path d="m419.85 217.4h2.49v2.49h-2.49z"/><path d="m419.85 221.58h2.49v2.49h-2.49z"/><path d="m419.85 225.76h2.49v2.49h-2.49z"/><path d="m419.85 229.93h2.49v2.49h-2.49z"/><path d="m419.85 234.11h2.49v2.49h-2.49z"/><path d="m419.85 238.29h2.49v2.49h-2.49z"/><path d="m419.85 242.47h2.49v2.49h-2.49z"/><path d="m419.85 246.65h2.49v2.49h-2.49z"/><path d="m419.85 250.83h2.49v2.49h-2.49z"/><path d="m419.85 255.01h2.49v2.49h-2.49z"/><path d="m419.85 259.19h2.49v2.49h-2.49z"/><path d="m419.85 263.37h2.49v2.49h-2.49z"/><path d="m423.81 188.14h2.49v2.49h-2.49z"/><path d="m423.81 192.32h2.49v2.49h-2.49z"/><path d="m423.81 196.5h2.49v2.49h-2.49z"/><path d="m423.81 200.68h2.49v2.49h-2.49z"/><path d="m423.81 204.86h2.49v2.49h-2.49z"/><path d="m423.81 209.04h2.49v2.49h-2.49z"/><path d="m423.81 213.22h2.49v2.49h-2.49z"/><path d="m423.81 217.4h2.49v2.49h-2.49z"/><path d="m423.81 221.58h2.49v2.49h-2.49z"/><path d="m423.81 225.76h2.49v2.49h-2.49z"/><path d="m423.81 229.93h2.49v2.49h-2.49z"/><path d="m423.81 234.11h2.49v2.49h-2.49z"/><path d="m423.81 238.29h2.49v2.49h-2.49z"/><path d="m423.81 242.47h2.49v2.49h-2.49z"/><path d="m423.81 246.65h2.49v2.49h-2.49z"/><path d="m427.76 188.14h2.49v2.49h-2.49z"/><path d="m427.76 192.32h2.49v2.49h-2.49z"/><path d="m427.76 196.5h2.49v2.49h-2.49z"/><path d="m427.76 200.68h2.49v2.49h-2.49z"/><path d="m427.76 204.86h2.49v2.49h-2.49z"/><path d="m427.76 209.04h2.49v2.49h-2.49z"/><path d="m427.76 213.22h2.49v2.49h-2.49z"/><path d="m427.76 217.4h2.49v2.49h-2.49z"/><path d="m427.76 221.58h2.49v2.49h-2.49z"/><path d="m427.76 225.76h2.49v2.49h-2.49z"/><path d="m427.76 229.93h2.49v2.49h-2.49z"/><path d="m427.76 234.11h2.49v2.49h-2.49z"/><path d="m427.76 238.29h2.49v2.49h-2.49z"/><path d="m431.72 188.14h2.49v2.49h-2.49z"/><path d="m431.72 192.32h2.49v2.49h-2.49z"/><path d="m431.72 196.5h2.49v2.49h-2.49z"/><path d="m431.72 200.68h2.49v2.49h-2.49z"/><path d="m431.72 204.86h2.49v2.49h-2.49z"/><path d="m431.72 209.04h2.49v2.49h-2.49z"/><path d="m431.72 213.22h2.49v2.49h-2.49z"/><path d="m431.72 217.4h2.49v2.49h-2.49z"/><path d="m431.72 221.58h2.49v2.49h-2.49z"/><path d="m431.72 225.76h2.49v2.49h-2.49z"/><path d="m431.72 229.93h2.49v2.49h-2.49z"/><path d="m431.72 234.11h2.49v2.49h-2.49z"/><path d="m200.63 186.9h2.49v2.49h-2.49z"/><path d="m200.63 191.08h2.49v2.49h-2.49z"/><path d="m200.63 195.26h2.49v2.49h-2.49z"/><path d="m200.63 199.43h2.49v2.49h-2.49z"/><path d="m200.63 203.61h2.49v2.49h-2.49z"/><path d="m200.63 207.79h2.49v2.49h-2.49z"/><path d="m200.63 211.97h2.49v2.49h-2.49z"/><path d="m200.63 216.15h2.49v2.49h-2.49z"/><path d="m200.63 220.33h2.49v2.49h-2.49z"/><path d="m200.63 224.51h2.49v2.49h-2.49z"/><path d="m200.63 228.69h2.49v2.49h-2.49z"/><path d="m200.63 232.87h2.49v2.49h-2.49z"/><path d="m200.63 237.05h2.49v2.49h-2.49z"/><path d="m200.63 241.22h2.49v2.49h-2.49z"/><path d="m200.63 245.4h2.49v2.49h-2.49z"/><path d="m200.63 249.58h2.49v2.49h-2.49z"/><path d="m200.63 253.76h2.49v2.49h-2.49z"/><path d="m200.63 262.12h2.49v2.49h-2.49z"/><path d="m200.63 266.3h2.49v2.49h-2.49z"/><path d="m200.63 270.48h2.49v2.49h-2.49z"/><path d="m200.63 274.66h2.49v2.49h-2.49z"/><path d="m200.63 278.84h2.49v2.49h-2.49z"/><path d="m204.59 186.9h2.49v2.49h-2.49z"/><path d="m204.59 191.08h2.49v2.49h-2.49z"/><path d="m204.59 195.26h2.49v2.49h-2.49z"/><path d="m204.59 199.43h2.49v2.49h-2.49z"/><path d="m204.59 203.61h2.49v2.49h-2.49z"/><path d="m204.59 207.79h2.49v2.49h-2.49z"/><path d="m204.59 211.97h2.49v2.49h-2.49z"/><path d="m204.59 216.15h2.49v2.49h-2.49z"/><path d="m204.59 220.33h2.49v2.49h-2.49z"/><path d="m204.59 224.51h2.49v2.49h-2.49z"/><path d="m204.59 228.69h2.49v2.49h-2.49z"/><path d="m204.59 232.87h2.49v2.49h-2.49z"/><path d="m204.59 237.05h2.49v2.49h-2.49z"/><path d="m204.59 241.22h2.49v2.49h-2.49z"/><path d="m204.59 245.4h2.49v2.49h-2.49z"/><path d="m204.59 249.58h2.49v2.49h-2.49z"/><path d="m204.59 274.66h2.49v2.49h-2.49z"/><path d="m204.59 278.84h2.49v2.49h-2.49z"/><path d="m208.55 186.9h2.49v2.49h-2.49z"/><path d="m208.55 191.08h2.49v2.49h-2.49z"/><path d="m208.55 195.26h2.49v2.49h-2.49z"/><path d="m208.55 199.43h2.49v2.49h-2.49z"/><path d="m208.55 203.61h2.49v2.49h-2.49z"/><path d="m208.55 207.79h2.49v2.49h-2.49z"/><path d="m208.55 211.97h2.49v2.49h-2.49z"/><path d="m208.55 216.15h2.49v2.49h-2.49z"/><path d="m208.55 220.33h2.49v2.49h-2.49z"/><path d="m208.55 224.51h2.49v2.49h-2.49z"/><path d="m208.55 228.69h2.49v2.49h-2.49z"/><path d="m208.55 232.87h2.49v2.49h-2.49z"/><path d="m208.55 237.05h2.49v2.49h-2.49z"/><path d="m208.55 241.22h2.49v2.49h-2.49z"/><path d="m208.55 245.4h2.49v2.49h-2.49z"/><path d="m208.55 249.58h2.49v2.49h-2.49z"/><path d="m208.55 257.94h2.49v2.49h-2.49z"/><path d="m208.55 262.12h2.49v2.49h-2.49z"/><path d="m208.55 266.3h2.49v2.49h-2.49z"/><path d="m208.55 270.48h2.49v2.49h-2.49z"/><path d="m208.55 278.84h2.49v2.49h-2.49z"/><path d="m277.61 216.15h2.49v2.49h-2.49z"/><path d="m277.61 220.33h2.49v2.49h-2.49z"/><path d="m277.61 224.51h2.49v2.49h-2.49z"/><path d="m277.61 228.69h2.49v2.49h-2.49z"/><path d="m277.61 232.87h2.49v2.49h-2.49z"/><path d="m277.61 237.05h2.49v2.49h-2.49z"/><path d="m277.61 241.22h2.49v2.49h-2.49z"/><path d="m277.61 245.4h2.49v2.49h-2.49z"/><path d="m277.61 249.58h2.49v2.49h-2.49z"/><path d="m277.61 253.76h2.49v2.49h-2.49z"/><path d="m277.61 257.94h2.49v2.49h-2.49z"/><path d="m277.61 262.12h2.49v2.49h-2.49z"/><path d="m277.61 266.3h2.49v2.49h-2.49z"/><path d="m277.61 274.66h2.49v2.49h-2.49z"/><path d="m277.61 278.84h2.49v2.49h-2.49z"/><path d="m277.61 283.01h2.49v2.49h-2.49z"/><path d="m277.61 287.19h2.49v2.49h-2.49z"/><path d="m277.61 295.55h2.49v2.49h-2.49z"/><path d="m277.61 299.73h2.49v2.49h-2.49z"/><path d="m277.61 303.91h2.49v2.49h-2.49z"/><path d="m281.57 216.15h2.49v2.49h-2.49z"/><path d="m281.57 220.33h2.49v2.49h-2.49z"/><path d="m281.57 224.51h2.49v2.49h-2.49z"/><path d="m281.57 228.69h2.49v2.49h-2.49z"/><path d="m281.57 232.87h2.49v2.49h-2.49z"/><path d="m281.57 237.05h2.49v2.49h-2.49z"/><path d="m281.57 241.22h2.49v2.49h-2.49z"/><path d="m281.57 245.4h2.49v2.49h-2.49z"/><path d="m281.57 249.58h2.49v2.49h-2.49z"/><path d="m281.57 253.76h2.49v2.49h-2.49z"/><path d="m281.57 257.94h2.49v2.49h-2.49z"/><path d="m281.57 262.12h2.49v2.49h-2.49z"/><path d="m281.57 266.3h2.49v2.49h-2.49z"/><path d="m281.57 278.84h2.49v2.49h-2.49z"/><path d="m281.57 283.01h2.49v2.49h-2.49z"/><path d="m281.57 291.37h2.49v2.49h-2.49z"/><path d="m281.57 295.55h2.49v2.49h-2.49z"/><path d="m281.57 299.73h2.49v2.49h-2.49z"/><path d="m281.57 303.91h2.49v2.49h-2.49z"/><path d="m285.53 216.15h2.49v2.49h-2.49z"/><path d="m285.53 220.33h2.49v2.49h-2.49z"/><path d="m285.53 224.51h2.49v2.49h-2.49z"/><path d="m285.53 228.69h2.49v2.49h-2.49z"/><path d="m285.53 232.87h2.49v2.49h-2.49z"/><path d="m285.53 237.05h2.49v2.49h-2.49z"/><path d="m285.53 241.22h2.49v2.49h-2.49z"/><path d="m285.53 245.4h2.49v2.49h-2.49z"/><path d="m285.53 249.58h2.49v2.49h-2.49z"/><path d="m285.53 253.76h2.49v2.49h-2.49z"/><path d="m285.53 257.94h2.49v2.49h-2.49z"/><path d="m285.53 262.12h2.49v2.49h-2.49z"/><path d="m285.53 266.3h2.49v2.49h-2.49z"/><path d="m285.53 270.48h2.49v2.49h-2.49z"/><path d="m285.53 278.84h2.49v2.49h-2.49z"/><path d="m285.53 287.19h2.49v2.49h-2.49z"/><path d="m285.53 291.37h2.49v2.49h-2.49z"/><path d="m285.53 295.55h2.49v2.49h-2.49z"/><path d="m285.53 299.73h2.49v2.49h-2.49z"/><path d="m285.53 303.91h2.49v2.49h-2.49z"/><path d="m261.49 239.98h2.49v2.49h-2.49z"/><path d="m261.49 244.16h2.49v2.49h-2.49z"/><path d="m261.49 248.34h2.49v2.49h-2.49z"/><path d="m261.49 252.52h2.49v2.49h-2.49z"/><path d="m261.49 256.69h2.49v2.49h-2.49z"/><path d="m261.49 260.87h2.49v2.49h-2.49z"/><path d="m261.49 273.41h2.49v2.49h-2.49z"/><path d="m261.49 277.59h2.49v2.49h-2.49z"/><path d="m261.49 281.77h2.49v2.49h-2.49z"/><path d="m261.49 285.95h2.49v2.49h-2.49z"/><path d="m261.49 290.13h2.49v2.49h-2.49z"/><path d="m261.49 294.31h2.49v2.49h-2.49z"/><path d="m261.49 298.48h2.49v2.49h-2.49z"/><path d="m265.44 239.98h2.49v2.49h-2.49z"/><path d="m265.44 244.16h2.49v2.49h-2.49z"/><path d="m265.44 248.34h2.49v2.49h-2.49z"/><path d="m265.44 252.52h2.49v2.49h-2.49z"/><path d="m265.44 256.69h2.49v2.49h-2.49z"/><path d="m265.44 260.87h2.49v2.49h-2.49z"/><path d="m265.44 273.41h2.49v2.49h-2.49z"/><path d="m265.44 277.59h2.49v2.49h-2.49z"/><path d="m265.44 281.77h2.49v2.49h-2.49z"/><path d="m265.44 285.95h2.49v2.49h-2.49z"/><path d="m265.44 290.13h2.49v2.49h-2.49z"/><path d="m265.44 294.31h2.49v2.49h-2.49z"/><path d="m265.44 302.66h2.49v2.49h-2.49z"/><path d="m396.97 221.58h2.49v2.49h-2.49z"/><path d="m396.97 225.76h2.49v2.49h-2.49z"/><path d="m396.97 229.93h2.49v2.49h-2.49z"/><path d="m396.97 234.11h2.49v2.49h-2.49z"/><path d="m396.97 238.29h2.49v2.49h-2.49z"/><path d="m396.97 242.47h2.49v2.49h-2.49z"/><path d="m396.97 246.65h2.49v2.49h-2.49z"/><path d="m396.97 250.83h2.49v2.49h-2.49z"/><path d="m396.97 255.01h2.49v2.49h-2.49z"/><path d="m396.97 259.19h2.49v2.49h-2.49z"/><path d="m396.97 263.37h2.49v2.49h-2.49z"/><path d="m396.97 271.72h2.49v2.49h-2.49z"/><path d="m396.97 275.9h2.49v2.49h-2.49z"/><path d="m396.97 280.08h2.49v2.49h-2.49z"/><path d="m396.97 284.26h2.49v2.49h-2.49z"/><path d="m396.97 288.44h2.49v2.49h-2.49z"/><path d="m396.97 292.62h2.49v2.49h-2.49z"/><path d="m396.97 296.8h2.49v2.49h-2.49z"/><path d="m396.97 300.98h2.49v2.49h-2.49z"/><path d="m400.93 221.58h2.49v2.49h-2.49z"/><path d="m400.93 225.76h2.49v2.49h-2.49z"/><path d="m400.93 229.93h2.49v2.49h-2.49z"/><path d="m400.93 234.11h2.49v2.49h-2.49z"/><path d="m400.93 238.29h2.49v2.49h-2.49z"/><path d="m400.93 242.47h2.49v2.49h-2.49z"/><path d="m400.93 246.65h2.49v2.49h-2.49z"/><path d="m400.93 250.83h2.49v2.49h-2.49z"/><path d="m400.93 255.01h2.49v2.49h-2.49z"/><path d="m400.93 259.19h2.49v2.49h-2.49z"/><path d="m400.93 263.37h2.49v2.49h-2.49z"/><path d="m400.93 267.54h2.49v2.49h-2.49z"/><path d="m400.93 271.72h2.49v2.49h-2.49z"/><path d="m400.93 275.9h2.49v2.49h-2.49z"/><path d="m400.93 280.08h2.49v2.49h-2.49z"/><path d="m400.93 284.26h2.49v2.49h-2.49z"/><path d="m400.93 288.44h2.49v2.49h-2.49z"/><path d="m400.93 292.62h2.49v2.49h-2.49z"/><path d="m400.93 296.8h2.49v2.49h-2.49z"/><path d="m400.93 300.98h2.49v2.49h-2.49z"/><path d="m377.47 237.85h2.49v2.49h-2.49z"/><path d="m377.47 242.03h2.49v2.49h-2.49z"/><path d="m377.47 246.21h2.49v2.49h-2.49z"/><path d="m377.47 250.39h2.49v2.49h-2.49z"/><path d="m377.47 254.57h2.49v2.49h-2.49z"/><path d="m377.47 258.75h2.49v2.49h-2.49z"/><path d="m377.47 262.93h2.49v2.49h-2.49z"/><path d="m377.47 267.1h2.49v2.49h-2.49z"/><path d="m377.47 271.28h2.49v2.49h-2.49z"/><path d="m377.47 275.46h2.49v2.49h-2.49z"/><path d="m381.43 237.85h2.49v2.49h-2.49z"/><path d="m381.43 242.03h2.49v2.49h-2.49z"/><path d="m381.43 246.21h2.49v2.49h-2.49z"/><path d="m381.43 250.39h2.49v2.49h-2.49z"/><path d="m381.43 254.57h2.49v2.49h-2.49z"/><path d="m381.43 258.75h2.49v2.49h-2.49z"/><path d="m381.43 262.93h2.49v2.49h-2.49z"/><path d="m381.43 267.1h2.49v2.49h-2.49z"/><path d="m381.43 271.28h2.49v2.49h-2.49z"/></g><path d="m357.87 79.26h4.18v233.08h-4.18z" fill="#e0e0e0"/><path d="m279.17 79.26h4.18v233.08h-4.18z" fill="#e0e0e0"/><path d="m200.47 79.26h4.18v233.08h-4.18z" fill="#e0e0e0"/><circle cx="109.6" cy="87.87" fill="#e0e0e0" r="23.55" transform="matrix(.97325912 -.22971002 .22971002 .97325912 -17.26 27.53)"/><circle cx="109.6" cy="87.87" fill="#f0f0f0" r="20.03" transform="matrix(.9870804 -.16022575 .16022575 .9870804 -12.66 18.69)"/><path d="m110.55 74.13v14l9.28-5.25" fill="#f0f0f0" stroke="#e0e0e0" stroke-linecap="round" stroke-linejoin="round" stroke-width="2"/><path d="m184.23 356.32a3 3 0 0 0 -2.38-4.27 6.38 6.38 0 0 0 -2-7 1.5 1.5 0 0 0 -.88-.39 1.64 1.64 0 0 0 -.94.42l-5.57 4a3.4 3.4 0 0 0 -1.11 1.09c-1.14 2.21 3 5 1.28 6.86-.49.53-1.27.63-1.87 1-1.33.83-1.49 2.65-2.11 4.09s-2.77 2.55-3.6 1.22c.61-1.38-1.23-2.56-2.73-2.74s-3.06-.26-3.88-1.66c-2.13 1.86-6.88-3.32-6.78-5.41-1.74.13-2.93 1.77-3.31 3.4a24.48 24.48 0 0 0 -.18 5.21c-.05 3.38-1.15 6.69-1.09 10.07.05 2.63 1.07 5.55 3.48 6.61a9 9 0 0 0 3.73.5l27.43-.17a4.32 4.32 0 0 0 1.93-.32c1.24-.65 1.5-2.27 1.61-3.67q.73-8.94 1.48-17.87z" fill="#e0e0e0"/><path d="m185.84 327.33h-42.56l.35 4.3.25 3.07.65 8 .37 4.59.49 6.11.21 2.62.07.78.25 3.08.34 4.22.21 2.62.22 2.66.25 3.08.19 2.33.21 2.62.09 1.14h39.06l.09-1.14.21-2.61.19-2.35.25-3.08.22-2.65.21-2.62.34-4.23.25-3.07.06-.78.21-2.62.5-6.11.37-4.58.64-8 .25-3.07.35-4.3zm2.56 2.82-.82-.82h.89zm-.21 2.61-.08 1-3.81 3.81-4.37-4.37 3.91-3.91h.92zm-1.1 13.62-2.79 2.79-4.37-4.37 4.37-4.36 3 3zm-40.5-2.92 3-3 4.41 4.34-4.37 4.37-2.78-2.79zm36.3-4.44-4.37 4.37-4.37-4.39 4.37-4.37zm-6.89-9.69h5l-2.5 2.5zm1.08 15.47-4.36 4.37-4.37-4.37 4.37-4.36zm-14.51 5.78 4.37-4.36 4.36 4.36-4.3 4.42zm2.95 5.78-4.37 4.37-4.36-4.36 4.37-4.37zm7.2-4.36 4.36 4.37-4.36 4.36-4.37-4.37zm-5.72-8.61-4.41-4.39 4.37-4.37 4.36 4.37zm-1.42 1.41-4.36 4.37-4.37-4.37 4.37-4.36zm-10.15-1.41-4.43-4.39 4.36-4.37 4.37 4.37zm0 2.83 4.37 4.36-4.41 4.42-4.39-4.42zm4.37 15.93-4.37 4.36-4.43-4.36 4.36-4.37zm1.41 1.41 4.37 4.37-4.36 4.37-4.37-4.37zm1.42-1.41 4.37-4.37 4.36 4.37-4.36 4.36zm10.15 1.41 4.36 4.37-4.36 4.37-4.37-4.37zm5.78 5.78 4.37 4.37-2.83 2.83h-3.1l-2.83-2.83zm-4.37-7.19 4.37-4.37 4.37 4.37-4.37 4.36zm0-11.57 4.37-4.36 4.37 4.36-4.41 4.42zm2.95-17.34-4.36 4.37-4.37-4.37 3.91-3.91h.92zm-10.14-1.41-2.5-2.5h5zm-1.42 1.41-4.36 4.37-4.37-4.37 3.91-3.91h.92zm-7.65-3.91-2.5 2.5-2.49-2.5zm-7.82 0 3.91 3.91-4.37 4.37-3.8-3.81-.08-1 3.42-3.43zm-3.74 0-.81.81-.07-.81zm-.27 7.55 2.1 2.12-1.82 1.82zm1.19 14.65-.17-2.07 1.12 1.12zm.21 2.63 2.15-2.16 4.37 4.37-4.37 4.36-1.8-1.73zm.65 8.08v-.19l.1.1-.09.09zm.76 9.31-.55-6.7 1.29-1.29 4.37 4.37-4.37 4.36zm.4 5-.08-1 .42-.42 1.42 1.42zm1.76-2.83 4.36-4.37 4.37 4.37-2.83 2.83h-3.08zm8.73 2.83 1.42-1.42 1.42 1.42zm5.66 0-2.83-2.83 4.37-4.37 4.36 4.37-2.82 2.83zm5.9 0 1.42-1.42 1.42 1.42zm13.32 0h-1.76l1.42-1.42.42.42zm.41-5-.75.74-4.37-4.36 4.37-4.37 1.29 1.29zm.77-9.51v.2l-.09-.09.11-.11zm.25-3.07-1.77 1.76-4.37-4.36 4.33-4.37 2.16 2.16zm.6-7.43-1-1 1.13-1.12zm1.19-14.67-.32 4-1.87-1.87 2.15-2.15z" fill="#e6e6e6"/><rect fill="#f0f0f0" height="5.57" rx="1.64" transform="matrix(-1 0 0 -1 333.9 656.66)" width="52.8" x="140.55" y="325.55"/><rect fill="#f0f0f0" height="5.57" rx="1.64" width="45.19" x="144.36" y="375.55"/><ellipse cx="250" cy="416.24" fill="#f5f5f5" rx="193.89" ry="11.32"/><path d="m382.39 349s6.34-5.29 11.79 0 6.49 38.08 6.49 38.08" fill="none" stroke="#16a34a" stroke-miterlimit="10"/><path d="m401.12 393.4s-3.74-38.47 10.35-54.64" fill="none" stroke="#16a34a" stroke-miterlimit="10"/><path d="m399.78 389.34s2.88-43.79-7.69-53.51" fill="none" stroke="#16a34a" stroke-miterlimit="10"/><path d="m401.12 389.34s.25-28.94 8.1-33.44 11.85 10.18 11.85 10.18" fill="none" stroke="#16a34a" stroke-miterlimit="10"/><path d="m398 389.34s1.28-22.21-4.8-30.16-12.49 3.41-12.49 3.41" fill="none" stroke="#16a34a" stroke-miterlimit="10"/><path d="m400.14 392.32s-3.94-52 2.57-60.77" fill="none" stroke="#16a34a" stroke-miterlimit="10"/><path d="m415.94 360.12s-3.91 1.44-2.75 4.85 13.54 9 13.54 9 5.19-4.75.43-12.48-11.11-3.81-11.22-1.37z" fill="#16a34a"/><path d="m415.94 360.12s-3.91 1.44-2.75 4.85 13.54 9 13.54 9 5.19-4.75.43-12.48-11.11-3.81-11.22-1.37z" fill="#fff" opacity=".2"/><path d="m398.92 353.63s4.17-.17 4.41 3.42-9 13.53-9 13.53-6.62-2.39-5.2-11.35 8.75-7.81 9.79-5.6z" fill="#16a34a"/><path d="m398.92 353.63s4.17-.17 4.41 3.42-9 13.53-9 13.53-6.62-2.39-5.2-11.35 8.75-7.81 9.79-5.6z" fill="#fff" opacity=".2"/><path d="m395.39 336.43s2.78-.29 2.56-2-10.81-6.05-17.05 1c0 0 4 6.87 9.78 6.95s4.71-5.95 4.71-5.95z" fill="#16a34a"/><path d="m395.39 336.43s2.78-.29 2.56-2-10.81-6.05-17.05 1c0 0 4 6.87 9.78 6.95s4.71-5.95 4.71-5.95z" fill="#fff" opacity=".2"/><path d="m400.57 332.32s-2.52 1.22-3.22-.34 6-10.84 15-8.17c0 0 .24 7.95-4.61 11.08s-7.17-2.57-7.17-2.57z" fill="#16a34a"/><path d="m400.57 332.32s-2.52 1.22-3.22-.34 6-10.84 15-8.17c0 0 .24 7.95-4.61 11.08s-7.17-2.57-7.17-2.57z" fill="#fff" opacity=".2"/><path d="m387.41 358.75s1.92-1.55-.15-2.31-12.26-.54-12.33 9.56c0 0 11.83 2 13.29-1.87s-.81-5.38-.81-5.38z" fill="#16a34a"/><path d="m387.41 358.75s1.92-1.55-.15-2.31-12.26-.54-12.33 9.56c0 0 11.83 2 13.29-1.87s-.81-5.38-.81-5.38z" fill="#fff" opacity=".2"/><path d="m411.54 336.18s-1.92-1.55.15-2.3 12.22-.54 12.33 9.52c0 0-11.83 2-13.29-1.87s.81-5.35.81-5.35z" fill="#16a34a"/><path d="m411.54 336.18s-1.92-1.55.15-2.3 12.22-.54 12.33 9.52c0 0-11.83 2-13.29-1.87s.81-5.35.81-5.35z" fill="#fff" opacity=".2"/><path d="m405.28 344.29s-.17-1.89 1.35-1.15 6.82 6.45 1.33 11.87c0 0-7.39-5.47-6.06-8.32s3.38-2.4 3.38-2.4z" fill="#16a34a"/><path d="m405.28 344.29s-.17-1.89 1.35-1.15 6.82 6.45 1.33 11.87c0 0-7.39-5.47-6.06-8.32s3.38-2.4 3.38-2.4z" fill="#fff" opacity=".2"/><path d="m385.7 347s1.14-1.5-.54-1.69-9.2 1.82-7.45 9.34c0 0 9.17-.69 9.56-3.81s-1.57-3.84-1.57-3.84z" fill="#16a34a"/><path d="m385.7 347s1.14-1.5-.54-1.69-9.2 1.82-7.45 9.34c0 0 9.17-.69 9.56-3.81s-1.57-3.84-1.57-3.84z" fill="#fff" opacity=".2"/><path d="m416.67 417.24h-31.46l-3.39-34.45h38.25z" fill="#16a34a"/><path d="m416.67 417.24h-31.46l-3.39-34.45h38.25z" fill="#fff" opacity=".5"/><path d="m380.14 378.99h41.61v7.6h-41.61z" fill="#16a34a"/><path d="m380.14 378.99h41.61v7.6h-41.61z" fill="#fff" opacity=".2"/><path d="m279.43 285.15h90.13a5.09 5.09 0 0 1 5.08 5.09 5.09 5.09 0 0 1 -5.08 5.08h-90.13a5.09 5.09 0 0 1 -5.09-5.08 5.09 5.09 0 0 1 5.09-5.09z" fill="#16a34a"/><path d="m328.57 286.06a4.18 4.18 0 0 1 0 8.35h-49.14a4.18 4.18 0 1 1 0-8.35z" fill="#16a34a"/><path d="m369.57 286.06a4.18 4.18 0 0 1 0 8.35h-90.14a4.18 4.18 0 1 1 0-8.35z" fill="#fff" opacity=".3"/><path d="m301.63 281.68a1.91 1.91 0 0 1 -1.93-1.92v-4.4a1.93 1.93 0 0 1 1.93-1.93 1.82 1.82 0 0 1 1.37.57 1.84 1.84 0 0 1 .56 1.36v.92h-1.26v-.95a.7.7 0 0 0 -.2-.49.69.69 0 0 0 -.5-.21.7.7 0 0 0 -.69.7v4.42a.66.66 0 0 0 .2.49.68.68 0 0 0 .49.2.72.72 0 0 0 .5-.2.7.7 0 0 0 .2-.49v-1.12h1.26v1.13a1.91 1.91 0 0 1 -1.92 1.92z" fill="#16a34a"/><path d="m305.81 279.73-.3 1.85h-1.26l1.37-8.06h1.67l1.35 8.06h-1.28l-.28-1.85zm.63-4.36-.44 3.17h.9z" fill="#16a34a"/><path d="m311.58 273.52a1.87 1.87 0 0 1 1.49.56 2 2 0 0 1 .42 1.36v1.17a1.89 1.89 0 0 1 -.65 1.45l.9 3.52h-1.32l-.73-3h-.81v3h-1.22v-8.06zm.72 1.94a.62.62 0 0 0 -.69-.7h-.73v2.58h.73a.65.65 0 0 0 .49-.21.64.64 0 0 0 .2-.49z" fill="#16a34a"/><path d="m314.78 281.58v-8.06h3.46v1.22h-2.24v2.2h1.64v1.22h-1.64v2.2h2.25v1.22z" fill="#16a34a"/><path d="m319.07 281.58v-8.06h3.46v1.22h-2.24v2.2h1.64v1.22h-1.64v2.2h2.24v1.22z" fill="#16a34a"/><path d="m325.28 273.52a1.88 1.88 0 0 1 1.5.56 2.08 2.08 0 0 1 .41 1.36v1.17a1.86 1.86 0 0 1 -.65 1.45l.9 3.52h-1.31l-.74-3h-.81v3h-1.21v-8.06zm.73 1.94a.62.62 0 0 0 -.69-.7h-.74v2.58h.74a.67.67 0 0 0 .49-.21.68.68 0 0 0 .2-.49z" fill="#16a34a"/><path d="m331.82 281.58v-6.21h-1v-.85a1.69 1.69 0 0 0 .83-.33 1.66 1.66 0 0 0 .57-.67h.78v8.06z" fill="#16a34a"/><path d="m338 279.74a1.82 1.82 0 0 1 -.57 1.36 1.84 1.84 0 0 1 -1.36.56 1.93 1.93 0 0 1 -1.93-1.92v-4.4a1.93 1.93 0 1 1 3.86 0zm-1.26-4.42a.7.7 0 0 0 -1.2-.5.7.7 0 0 0 -.2.5v4.4a.68.68 0 0 0 .2.49.69.69 0 0 0 1 0 .65.65 0 0 0 .21-.49z" fill="#16a34a"/><path d="m342.86 279.74a1.82 1.82 0 0 1 -.57 1.36 1.84 1.84 0 0 1 -1.36.56 1.93 1.93 0 0 1 -1.93-1.92v-4.4a1.93 1.93 0 1 1 3.86 0zm-1.26-4.42a.7.7 0 0 0 -1.2-.5.7.7 0 0 0 -.2.5v4.4a.68.68 0 0 0 .2.49.69.69 0 0 0 1 0 .65.65 0 0 0 .21-.49z" fill="#16a34a"/><path d="m345.71 276.48a1 1 0 0 1 -.3.71 1 1 0 0 1 -.71.29 1 1 0 0 1 -1-1v-2.3a1 1 0 0 1 1-1 .94.94 0 0 1 .71.3 1 1 0 0 1 .3.71zm-.92 5.23h-.71l4.11-8.52h.71zm-.48-5.24a.36.36 0 0 0 .11.26.39.39 0 0 0 .52 0 .36.36 0 0 0 .11-.26v-2.3a.37.37 0 0 0 -.11-.27.39.39 0 0 0 -.52 0 .37.37 0 0 0 -.11.27zm4 .84a.94.94 0 0 1 .71.3 1 1 0 0 1 .3.71v2.3a1 1 0 0 1 -.3.71 1 1 0 0 1 -.71.29 1 1 0 0 1 -.71-.3.94.94 0 0 1 -.3-.7v-2.3a1 1 0 0 1 1-1zm.35 1a.39.39 0 0 0 -.11-.27.34.34 0 0 0 -.26-.1.35.35 0 0 0 -.26.1.38.38 0 0 0 -.1.27v2.3a.34.34 0 0 0 .36.36.34.34 0 0 0 .26-.1.36.36 0 0 0 .11-.26z" fill="#16a34a"/><circle cx="380.93" cy="289.13" fill="#16a34a" r="15.2"/><circle cx="380.93" cy="289.13" opacity=".4" r="13.14" transform="matrix(.22971002 -.97325912 .97325912 .22971002 12.01 593.44)"/><path d="m373.33 287.9 5.81 6.75 8.82-11.82" fill="none" stroke="#16a34a" stroke-linecap="round" stroke-linejoin="round" stroke-width="2"/><rect fill="#16a34a" height="94.05" rx="7.05" width="120.81" x="256.32" y="75.96"/><rect fill="#fff" height="94.05" opacity=".4" rx="7.05" width="120.81" x="256.32" y="75.96"/><rect fill="#16a34a" height="61.15" rx="1.55" width="77.01" x="294.14" y="87.65"/><rect fill="#fff" height="61.15" opacity=".7" rx="1.55" width="77.01" x="294.14" y="87.65"/><path d="m357.65 98-3.76 2.14 1 .43c-13.29 27.93-41.9 33.94-48.36 35v3c6.06-.9 36.93-6.88 51.11-36.78l1 .44z" fill="#16a34a"/><path d="m359.6 139.84h-53.6a.51.51 0 0 1 -.5-.5v-44a.51.51 0 0 1 .5-.5.5.5 0 0 1 .5.5v43.55h53.1a.5.5 0 0 1 .5.5.51.51 0 0 1 -.5.45z" opacity=".2"/><g opacity=".2"><path d="m303.49 96.61h1.1a.23.23 0 0 0 .23-.23.23.23 0 0 0 -.23-.24h-1.1a.24.24 0 1 0 0 .47z"/><path d="m304.59 98.51h-1.1a.24.24 0 0 0 0 .48h1.1a.24.24 0 0 0 0-.48z"/><path d="m304.59 100.89h-1.1a.23.23 0 0 0 -.24.23.24.24 0 0 0 .24.24h1.1a.23.23 0 0 0 .23-.24.23.23 0 0 0 -.23-.23z"/><path d="m304.59 103.26h-1.1a.24.24 0 0 0 -.24.24.23.23 0 0 0 .24.23h1.1a.23.23 0 0 0 .23-.23.23.23 0 0 0 -.23-.24z"/><path d="m304.59 105.63h-1.1a.24.24 0 0 0 0 .48h1.1a.24.24 0 0 0 0-.48z"/><path d="m304.59 108h-1.1a.23.23 0 0 0 -.24.23.24.24 0 0 0 .24.24h1.1a.23.23 0 0 0 .23-.24.23.23 0 0 0 -.23-.23z"/><path d="m304.59 110.38h-1.1a.24.24 0 0 0 -.24.24.23.23 0 0 0 .24.23h1.1a.23.23 0 0 0 .23-.23.23.23 0 0 0 -.23-.24z"/><path d="m304.59 112.75h-1.1a.24.24 0 0 0 0 .48h1.1a.24.24 0 0 0 0-.48z"/><path d="m304.59 115.13h-1.1a.24.24 0 1 0 0 .47h1.1a.23.23 0 0 0 .23-.24.23.23 0 0 0 -.23-.23z"/><path d="m304.59 117.5h-1.1a.24.24 0 0 0 0 .48h1.1a.24.24 0 0 0 0-.48z"/><path d="m304.59 119.87h-1.1a.24.24 0 0 0 0 .48h1.1a.24.24 0 0 0 0-.48z"/><path d="m304.59 122.25h-1.1a.24.24 0 1 0 0 .47h1.1a.23.23 0 0 0 .23-.23.23.23 0 0 0 -.23-.24z"/><path d="m304.59 124.62h-1.1a.24.24 0 0 0 0 .48h1.1a.24.24 0 0 0 0-.48z"/><path d="m304.59 127h-1.1a.23.23 0 0 0 -.24.23.24.24 0 0 0 .24.24h1.1a.23.23 0 0 0 .23-.24.23.23 0 0 0 -.23-.23z"/><path d="m304.59 129.37h-1.1a.24.24 0 0 0 -.24.24.23.23 0 0 0 .24.23h1.1a.23.23 0 0 0 .23-.23.23.23 0 0 0 -.23-.24z"/><path d="m304.59 131.74h-1.1a.24.24 0 0 0 0 .48h1.1a.24.24 0 0 0 0-.48z"/><path d="m304.59 134.12h-1.1a.23.23 0 0 0 -.24.23.24.24 0 0 0 .24.24h1.1a.23.23 0 0 0 .23-.24.23.23 0 0 0 -.23-.23z"/><path d="m304.59 136.49h-1.1a.24.24 0 0 0 -.24.24.23.23 0 0 0 .24.23h1.1a.23.23 0 0 0 .23-.23.23.23 0 0 0 -.23-.24z"/><path d="m304.59 138.86h-1.1a.24.24 0 0 0 0 .48h1.1a.24.24 0 0 0 0-.48z"/></g><path d="m331.31 140.8 6.46-4.48s1-3.54 1.42-3.9 6.33-2.55 7.1-2.22.66 7.08 0 7.25-6 1.82-6 1.82l-6.89 5.58z" fill="#e4897b"/><path d="m291.26 142.22s.29.27.77.75c1.12 1.1 3.66 3.33 6.28 5.71 5.25 4.3 11.72 9.11 15.76 8.74 7.21-.65 22.93-13.42 22.93-13.42l-3-5.45s-11.47 7.62-18.36 9.22-18-19-23.39-20.42z" fill="#16a34a"/><path d="m291.26 142.22s.29.27.77.75c1.12 1.1 3.66 3.33 6.28 5.71 5.25 4.3 11.72 9.11 15.76 8.74 7.21-.65 22.93-13.42 22.93-13.42l-3-5.45s-11.47 7.62-18.36 9.22-18-19-23.39-20.42z" fill="#fff" opacity=".6"/><path d="m332.85 138.31 3.6 7.19 1.31-1.97-3.06-6.08z" fill="#16a34a"/><path d="m332.85 138.31 3.6 7.19 1.31-1.97-3.06-6.08z" fill="#fff" opacity=".7"/><path d="m292 143c1.13 1.1 3.45 3.33 6.26 5.71a28.09 28.09 0 0 0 -5.26-10.64z" opacity=".2"/><path d="m295.25 169.52c.29-9.61.4-29.67-2.95-42.18 0 0-17.4-.82-30.37 2.46 0 0 4.59 23.12 5.39 39.72z" fill="#16a34a"/><path d="m265.7 152.75c.74 5.62 1.37 11.52 1.63 16.77h27.92c.28-9.61.39-29.67-2.95-42.18 0 0-17.4-.82-30.37 2.46 0 0 1.14 5.74 2.39 13.56.46 2.9.94 6.1 1.38 9.39z" fill="#fff" opacity=".6"/><path d="m283.21 129.55-.73 3.6s4.19 17.49 5.09 26.56l-1.57 1.53-2.4-1.53s-.22-18.47-2.34-26.23l-3.8-3.11 3-1z" fill="#16a34a"/><path d="m271.83 128c2.51 2.28 8.66 1.44 8.66 1.44s3.84-1.05 3-2.25c-2.26-.38-3.36-1.43-3.81-2.78a6.7 6.7 0 0 1 -.23-2.59 11.83 11.83 0 0 1 .19-1.44l-7.61-5.63c1.04 3.67 2.26 10.51-.2 13.25z" fill="#e4897b"/><path d="m273.83 118.29a6.46 6.46 0 0 0 5.89 6.08 6.7 6.7 0 0 1 -.23-2.59z" opacity=".2"/><path d="m273 125.06 7.27 3.28.43-2.63 2.67.94a2.21 2.21 0 0 1 1.46 2.31l-.3 2.88-3.69-2-1.84 2.6-8.73-4.21z" fill="#16a34a"/><path d="m273 125.06 7.27 3.28.43-2.63 2.67.94a2.21 2.21 0 0 1 1.46 2.31l-.3 2.88-3.69-2-1.84 2.6-8.73-4.21z" fill="#fff" opacity=".7"/><path d="m264.32 143.36c.46 2.9.94 6.1 1.38 9.39a13.87 13.87 0 0 0 .54-11.27z" opacity=".2"/><path d="m265.36 135.67c-1.48-4.27-3.43-5.87-3.43-5.87-1.16.53-3.27 3.66-5.45 8v27.83c.77 1 1.64 1.85 2.46 2.8.31.37.61.75.9 1.13h1.66a15.21 15.21 0 0 1 -2.37-6.32c-.33-6.6 6.88-18.35 6.88-18.35a21.46 21.46 0 0 0 -.65-9.22z" fill="#16a34a"/><path d="m265.36 135.67c-1.48-4.27-3.43-5.87-3.43-5.87-1.16.53-3.27 3.66-5.45 8v27.83c.77 1 1.64 1.85 2.46 2.8.31.37.61.75.9 1.13h1.66a15.21 15.21 0 0 1 -2.37-6.32c-.33-6.6 6.88-18.35 6.88-18.35a21.46 21.46 0 0 0 -.65-9.22z" fill="#fff" opacity=".6"/><path d="m285.93 102.93s1.92 7-1.55 10.22-5-10.13-5-10.13z" fill="#263238"/><path d="m274 120.13a6.54 6.54 0 0 0 7.75 1.65 7.3 7.3 0 0 0 3.74-3.85 5.59 5.59 0 0 0 .26-.72c1.36-4.6 1.07-12.32-3.89-14.65a7.09 7.09 0 0 0 -10.14 6.56c.03 5.18-.19 8.23 2.28 11.01z" fill="#e4897b"/><path d="m279.5 111c-.05.41.18.77.46.78s.52-.31.54-.73-.19-.78-.46-.79-.51.3-.54.74z" fill="#263238"/><path d="m284.26 111.24c-.05.42.19.77.46.79s.52-.32.54-.74-.18-.77-.46-.79-.52.34-.54.74z" fill="#263238"/><path d="m282.74 111.37a14.87 14.87 0 0 0 1.82 3.71 2.49 2.49 0 0 1 -2 .27z" fill="#de5753"/><path d="m278.11 109.37a.27.27 0 0 0 .24-.09 2 2 0 0 1 1.63-.74.24.24 0 0 0 .27-.21.25.25 0 0 0 -.21-.28 2.46 2.46 0 0 0 -2.04.95.25.25 0 0 0 0 .35.39.39 0 0 0 .11.02z" fill="#263238"/><path d="m286.4 109.71a.22.22 0 0 0 .14 0 .24.24 0 0 0 .14-.32 2.47 2.47 0 0 0 -1.7-1.49.26.26 0 0 0 -.29.2.26.26 0 0 0 .2.29 2 2 0 0 1 1.33 1.2.29.29 0 0 0 .18.12z" fill="#263238"/><path d="m275.86 102.87.27 2.29a1.7 1.7 0 0 0 -.87 2.14c.73 1.92-.37 4.89-1.85 6.07 0 0-.05-.83-.75-.64s-.53 4.53.83 6.61c0 0-2.06-1.88-3.21-6.44-1.06-4.21-1.17-7.72-.3-9.34z" fill="#263238"/><path d="m269.24 113.25a4.89 4.89 0 0 0 2.69 2.63c1.61.64 2.59-.76 2.3-2.37-.27-1.43-1.43-3.53-3.12-3.46a2.2 2.2 0 0 0 -1.87 3.2z" fill="#e4897b"/><path d="m285.07 103.29s0 2.76-7.22 3.27a10.48 10.48 0 0 0 5-2.3 25.49 25.49 0 0 1 -8.29 2.37c-5.5.8-4.83 3.87-4.83 3.87a8.18 8.18 0 0 1 .3-9c3.18-4.75 14.36-4.88 15.54.15 0 0 2.67.55.88 6.17z" fill="#263238"/><path d="m281.34 116.64a14 14 0 0 0 -1 1.82l-.36-.1c-1.61-.5-2.19-1.26-2.35-2a2.14 2.14 0 0 1 0-1 2.21 2.21 0 0 1 .21-.55 7.88 7.88 0 0 0 3 1.62c.29.15.5.21.5.21z" fill="#263238"/><path d="m280.8 116.46-.32.53c-1.52-.47-2.52-1-2.85-1.6a2.21 2.21 0 0 1 .21-.55 7.88 7.88 0 0 0 2.96 1.62z" fill="#fff"/><path d="m279.94 118.36c-1.61-.5-2.19-1.26-2.35-2a5.62 5.62 0 0 1 1.68.9 2.13 2.13 0 0 1 .67 1.1z" fill="#de5753"/><path d="m265.73 154.16s0 .26 0 .72c0 1 .06 2.78.18 5.07.13 2.54.35 5.66.72 8.73 0 .28.08.56.11.84h29.16c0-.59.06-1.19.07-1.8.11-4.18 0-8.57-.16-11.76-.13-2.81-.27-4.7-.27-4.7-.09-1.36-.22-2.69-.35-4a112.38 112.38 0 0 0 -4-20.28h-.74l-3.62-.21h-.6c.9 8.53-1.56 19.26-1.56 19.26a64.39 64.39 0 0 0 -17.11-17.88l-1.51.37-1.93.48-.79.19c7.44 13.81 2.4 24.97 2.4 24.97z" fill="#16a34a"/><path d="m265.73 154.16s0 .26 0 .72c1.21-1.45 3.06-4.83 2.65-11.84-.44-7.52-2.93-12.15-4.23-14.08l-.79.19c7.41 13.85 2.37 25.01 2.37 25.01z" fill="#fff" opacity=".4"/><path d="m266.09 128.48c3.18 2.14 14.17 10 19 19.75a51.81 51.81 0 0 0 1.83-21.46h-.6c.9 8.53-1.56 19.26-1.56 19.26a64.39 64.39 0 0 0 -17.11-17.88z" fill="#fff" opacity=".4"/><path d="m290.49 127a104.57 104.57 0 0 1 2.8 12.53 52.77 52.77 0 0 0 1.9 7.78 112.38 112.38 0 0 0 -4-20.28z" fill="#fff" opacity=".4"/><path d="m294.44 153.79-1.31 7 2.84 6.91c.11-4.18 0-8.57-.16-11.76z" fill="#fff" opacity=".2"/><path d="m291.48 169.52 1.65-8.71-2.9-7.02-1.72 7.89 2.89 7.84z" fill="#fff" opacity=".2"/><path d="m286.81 169.52 1.7-7.84-2.9-7.89-2.27 8.07 3.01 7.66z" fill="#fff" opacity=".2"/><path d="m281.19 169.52 2.15-7.66-3.17-8.07-2.21 10.04 2.21 5.69z" fill="#fff" opacity=".2"/><path d="m276.71 169.52 1.25-5.69-3.47-8.95-1.62 8 2.81 6.64z" fill="#fff" opacity=".2"/><path d="m271.54 169.52 1.33-6.64-3.37-8-1.85 8.93 2.57 5.71z" fill="#fff" opacity=".2"/><path d="m265.92 160c.13 2.54.35 5.66.72 8.73l1-4.87z" fill="#fff" opacity=".2"/><path d="m370.08 171h-106.71a8.06 8.06 0 0 1 -8.05-8v-80a8.06 8.06 0 0 1 8.05-8h106.71a8.06 8.06 0 0 1 8.05 8v80a8.06 8.06 0 0 1 -8.05 8zm-106.71-94a6.05 6.05 0 0 0 -6.05 6v80a6 6 0 0 0 6.05 6h106.71a6 6 0 0 0 6.05-6v-80a6.05 6.05 0 0 0 -6.05-6z" fill="#16a34a"/><path d="m370.08 171h-106.71a8.06 8.06 0 0 1 -8.05-8v-80a8.06 8.06 0 0 1 8.05-8h106.71a8.06 8.06 0 0 1 8.05 8v80a8.06 8.06 0 0 1 -8.05 8zm-106.71-94a6.05 6.05 0 0 0 -6.05 6v80a6 6 0 0 0 6.05 6h106.71a6 6 0 0 0 6.05-6v-80a6.05 6.05 0 0 0 -6.05-6z" fill="#fff" opacity=".2"/><circle cx="377.76" cy="119.06" fill="#16a34a" r="15.2" transform="matrix(.92387953 -.38268343 .38268343 .92387953 -16.81 153.63)"/><circle cx="377.76" cy="119.06" opacity=".4" r="13.14" transform="matrix(.70710678 -.70710678 .70710678 .70710678 26.46 301.99)"/><path d="m370.16 117.82 5.82 6.76 8.81-11.82" fill="none" stroke="#16a34a" stroke-linecap="round" stroke-linejoin="round" stroke-width="2"/><rect fill="#fff" height="94.05" rx="7.05" width="120.81" x="307.36" y="160.09"/><g fill="#fff" opacity=".4"><path d="m386.04 181.92-2.07 2.68 4.13 1.86z"/><path d="m399.4 237.85 2.66-2.1-3.55-2.81z"/><path d="m366.07 178.69-.2-3.38-4.33 1.3z"/><path d="m378.61 234.1-2.06 2.68 4.12 1.86z"/><path d="m375.72 198.01 3.3.21-.41 3.71-3.92-1.03z"/><path d="m386.54 220.17-1.57 2.91-3.2-1.92 2.57-3.13z"/><path d="m366.04 242.26 3.3.2-.41 3.72-3.92-1.03z"/><path d="m393.67 203.37 2.06.41s-3.1 2.07-1.65 3.72-1 3.09-1 3.09l-1.86-1.24a2.43 2.43 0 0 0 .83-2.89c-.86-1.65 1.62-3.09 1.62-3.09z"/><path d="m397.88 176.47-1.89 2.8 4.23 1.6z"/><path d="m413.07 169.06 1.15-3.18-4.49-.52z"/><path d="m412.21 181.72.61-3.25 3.63.86-1.49 3.76z"/><path d="m415.73 199.34-2.09.24s2.33-2.91.45-4 0-3.26 0-3.26l2.15.61a2.43 2.43 0 0 0 .09 3c1.32 1.29-.6 3.41-.6 3.41z"/><path d="m381.76 253.75a6.82 6.82 0 0 1 1.56-1.49l-2.06-.42a4.3 4.3 0 0 0 -1.74 1.91z"/><path d="m410.97 244.79-2.06 2.68 4.12 1.86z"/><path d="m418.27 221.53 3.3.21-.42 3.71-3.91-1.03z"/><path d="m396.79 253.75c.09-1.36 2-2.66 2-2.66l-2.06-.41s-2.45 1.43-1.66 3.07z"/><path d="m381.51 172.62-1.29.3s.55-2.75-1.06-3.7a2.72 2.72 0 0 1 -1.06-3l1.61.46a3.31 3.31 0 0 0 1.07 2.74c1.28 1.17.73 3.2.73 3.2z"/><path d="m367.46 222.68-1.95.79s1.45-3.42-.66-4-.84-3.16-.84-3.16h2.23a2.41 2.41 0 0 0 .89 2.86c1.6.95.33 3.51.33 3.51z"/><path d="m359 202.65a1.55 1.55 0 1 1 -1.55-1.55 1.55 1.55 0 0 1 1.55 1.55z"/><path d="m398.57 164.83a1.55 1.55 0 1 1 -1.54-1.55 1.54 1.54 0 0 1 1.54 1.55z"/><path d="m349.69 177.72-2.46 2.32 3.78 2.49z"/><path d="m342.19 234.5 1.64-2.96-4.35-1.22z"/><path d="m321.57 239.08-.87 3.27 4.52.12z"/><path d="m323.5 223.17-.32 3.29-3.7-.54 1.17-3.88z"/><path d="m338.94 205.74 2.06-.41s-2.06 3.09-.09 4.06.25 3.25.25 3.25l-2.19-.43a2.42 2.42 0 0 0 -.36-3c-1.4-1.21.33-3.47.33-3.47z"/><path d="m322.54 203.7 1.82-2.85-4.28-1.49z"/><path d="m334.56 191.31-3.31.09.08-3.74 4 .68z"/><path d="m331.51 169.48-2.09-.22s2.9-2.33 1.32-3.85.75-3.17.75-3.17l2 1.07a2.43 2.43 0 0 0 -.57 2.95c.93 1.57-1.41 3.22-1.41 3.22z"/><path d="m348.78 246.37a1.55 1.55 0 1 1 1.68 1.4 1.55 1.55 0 0 1 -1.68-1.4z"/></g><path d="m409.81 207.11-2.26-4.61s2.58-6 2.26-6.45-4.41-2.58-5.16-2.41-3.07 6.61-3 6.73 1.52 1 1.52 1l1.45 8.68z" fill="#e4897b"/><path d="m356.19 220.47c-7.82.79-16.72.57-21.46-3s0-20.13 0-20.13l-5.94-2.34s-7.5 21.6-2.57 28.29c6.33 8.59 31.78 8.59 31.78 8.59z" fill="#16a34a"/><path d="m358 231.88h-.62a101.78 101.78 0 0 1 -10.23-.71c-7.73-.92-17.36-3-20.93-7.87-4.93-6.69 2.57-28.29 2.57-28.29l5.94 2.36s-4.75 16.59 0 20.13 13.64 3.77 21.46 3l.86 5.41.57 3.58z" fill="#fff" opacity=".6"/><path d="m358 225.55-.38 3.91-.24 2.41a101.78 101.78 0 0 1 -10.23-.71c2.72-2.55 7.8-4.54 9.9-5.28.6-.22.95-.33.95-.33z" opacity=".2"/><path d="m381.86 253.75c1.54-14.91 4.7-30.83 4.7-30.83-13-3.27-30.38-2.45-30.38-2.45-2.5 9.38-3.07 23-3.07 33.28z" fill="#16a34a"/><path d="m381.86 253.75c.27-2.62.59-5.28.93-7.87s.72-5.12 1.08-7.48c.1-.65.2-1.29.3-1.91.34-2.11.66-4.08 1-5.81.81-4.7 1.42-7.76 1.42-7.76-13-3.27-30.36-2.45-30.36-2.45-2.5 9.38-3.07 23-3.08 33.28z" fill="#fff" opacity=".6"/><path d="m361.83 253.75h1.59l1.43-.91s.21-18.47 2.33-26.23l3.81-3.12-3-1-2.71.15.73 3.6s-4.19 17.49-5.09 26.56z" fill="#16a34a"/><path d="m376.66 221.09c-2.51 2.28-8.67 1.44-8.67 1.44s-3.84-1.05-3-2.25c2.26-.38 3.36-1.43 3.81-2.79a6.63 6.63 0 0 0 .23-2.58 14.2 14.2 0 0 0 -.19-1.44l7.61-5.63c-1.03 3.71-2.25 10.55.21 13.25z" fill="#e4897b"/><path d="m374.66 211.42a6.43 6.43 0 0 1 -5.89 6.07 6.63 6.63 0 0 0 .23-2.58z" opacity=".2"/><path d="m375.54 218.19-7.27 3.28-.43-2.63-2.67.94a2.21 2.21 0 0 0 -1.46 2.3l.29 2.92 3.69-2 1.84 2.6 8.73-4.21z" fill="#16a34a"/><path d="m375.54 218.19-7.27 3.28-.43-2.63-2.67.94a2.21 2.21 0 0 0 -1.46 2.3l.29 2.92 3.69-2 1.84 2.6 8.73-4.21z" fill="#fff" opacity=".7"/><path d="m362.56 196.05s-1.93 7 1.55 10.23 5-10.13 5-10.13z" fill="#263238"/><path d="m374.48 213.26a6.54 6.54 0 0 1 -7.75 1.65 7.3 7.3 0 0 1 -3.74-3.85 5.73 5.73 0 0 1 -.26-.73c-1.36-4.59-1.07-12.31 3.89-14.64a7.09 7.09 0 0 1 10.14 6.56c-.03 5.18.24 8.23-2.28 11.01z" fill="#e4897b"/><path d="m369 204.12c.05.41-.18.77-.46.78s-.52-.32-.54-.73.18-.78.46-.79.54.31.54.74z" fill="#263238"/><path d="m364.23 204.37c0 .41-.19.77-.46.79s-.52-.32-.54-.74.18-.78.46-.79.51.37.54.74z" fill="#263238"/><path d="m365.75 204.5a15.22 15.22 0 0 1 -1.82 3.71 2.48 2.48 0 0 0 2 .27z" fill="#de5753"/><path d="m370.38 202.5a.27.27 0 0 1 -.24-.09 2 2 0 0 0 -1.63-.74.25.25 0 0 1 -.27-.22.24.24 0 0 1 .21-.27 2.44 2.44 0 0 1 2.06.91.24.24 0 0 1 0 .35.39.39 0 0 1 -.13.06z" fill="#263238"/><path d="m362.09 202.84a.22.22 0 0 1 -.14 0 .24.24 0 0 1 -.14-.32 2.46 2.46 0 0 1 1.71-1.49.26.26 0 0 1 .29.2.26.26 0 0 1 -.2.29 2 2 0 0 0 -1.34 1.2.25.25 0 0 1 -.18.12z" fill="#263238"/><path d="m372.62 196-.26 2.29a1.69 1.69 0 0 1 .86 2.13c-.72 1.93.38 4.9 1.86 6.08 0 0 0-.83.75-.64s.53 4.53-.83 6.6c0 0 2.06-1.88 3.21-6.43 1.06-4.21 1.17-7.72.3-9.34z" fill="#263238"/><path d="m379.25 206.37a5 5 0 0 1 -2.69 2.64c-1.61.64-2.59-.76-2.3-2.37.27-1.43 1.43-3.53 3.12-3.46a2.2 2.2 0 0 1 1.87 3.19z" fill="#e4897b"/><path d="m363.42 196.41s0 2.77 7.22 3.27a10.46 10.46 0 0 1 -5-2.29 25.49 25.49 0 0 0 8.29 2.37c5.51.8 4.83 3.87 4.83 3.87a8.19 8.19 0 0 0 -.29-9c-3.18-4.75-14.36-4.87-15.54.16 0 0-2.67.55-.88 6.17z" fill="#263238"/><path d="m367.15 209.77a14 14 0 0 1 1 1.82l.36-.11c1.61-.49 2.19-1.25 2.35-1.94a2.14 2.14 0 0 0 0-1 2 2 0 0 0 -.22-.55 8 8 0 0 1 -2.95 1.62c-.33.1-.54.16-.54.16z" fill="#263238"/><path d="m367.69 209.59.32.53c1.52-.47 2.52-1 2.85-1.6a2 2 0 0 0 -.22-.55 8 8 0 0 1 -2.95 1.62z" fill="#fff"/><path d="m368.55 211.48c1.61-.49 2.19-1.25 2.35-1.94a5.5 5.5 0 0 0 -1.68.9 2 2 0 0 0 -.67 1.04z" fill="#de5753"/><path d="m382.53 253.75c0-.22 0-.46 0-.68.12-2.28.16-4.12.17-5.06 0-.47 0-.72 0-.72s-5.05-11.13 2.36-25l-.8-.19-1.93-.48-1.5-.38a64.63 64.63 0 0 0 -17.12 17.89s-2.45-10.73-1.56-19.26h-.59l-3.62.2h-.74a112.38 112.38 0 0 0 -4 20.27c-.13 1.29-.26 2.62-.35 4 0 0-.14 1.89-.27 4.7-.06 1.37-.12 3-.15 4.66z" fill="#16a34a"/><path d="m382.76 247.29s0 .25 0 .72c-1.2-1.45-3.05-4.83-2.64-11.85.43-7.51 2.92-12.14 4.22-14.07l.8.19c-7.43 13.88-2.38 25.01-2.38 25.01z" fill="#fff" opacity=".4"/><path d="m382.39 221.61c-3.17 2.14-14.16 10-18.94 19.75a51.81 51.81 0 0 1 -1.83-21.46h.59c-.89 8.53 1.56 19.26 1.56 19.26a64.63 64.63 0 0 1 17.12-17.89z" fill="#fff" opacity=".4"/><path d="m358 220.1a104.86 104.86 0 0 0 -2.81 12.53 51.05 51.05 0 0 1 -1.89 7.78 112.38 112.38 0 0 1 4-20.27z" fill="#fff" opacity=".4"/><path d="m355.33 253.75-1.33-6.83-1.36 2.17c-.06 1.37-.12 3-.15 4.66z" fill="#fff" opacity=".2"/><path d="m359.75 253.75-1.49-6.83-2.82 6.83z" fill="#fff" opacity=".2"/><path d="m364.8 253.75-1.92-6.83-2.51 6.83z" fill="#fff" opacity=".2"/><path d="m369.82 253.75-1.5-6.83-2.69 6.83z" fill="#fff" opacity=".2"/><path d="m375.16 253.75-1.16-5.75-2.23 5.75z" fill="#fff" opacity=".2"/><path d="m380.18 253.75-1.19-5.75-2.42 5.75z" fill="#fff" opacity=".2"/><rect fill="#16a34a" height="23.04" rx=".69" transform="matrix(.99788169 -.06505481 .06505481 .99788169 -12.26 21.78)" width="33.63" x="311.04" y="187.39"/><rect fill="#fff" height="23.04" opacity=".8" rx=".69" transform="matrix(.99788169 -.06505481 .06505481 .99788169 -12.26 21.78)" width="33.63" x="311.04" y="187.39"/><path d="m333.92 190.85-13.13.86a.5.5 0 0 1 -.07-1l13.13-.85a.49.49 0 0 1 .53.46.49.49 0 0 1 -.46.53z" fill="#fff"/><rect fill="#fff" height="14.51" opacity=".7" rx="1.55" transform="matrix(1 -.07 .07 1 -12.35 21.79)" width="28.26" x="313.81" y="192.99"/><path d="m329.61 195.89-13.61.89a.5.5 0 0 1 -.06-1l13.61-.89a.51.51 0 0 1 .53.47.5.5 0 0 1 -.47.53z" opacity=".2"/><path d="m337.79 198.36-21.59 1.41a.49.49 0 0 1 -.53-.46.49.49 0 0 1 .46-.53l21.6-1.41a.5.5 0 0 1 .53.46.49.49 0 0 1 -.47.53z" opacity=".2"/><path d="m325 202.2-8.61.57a.5.5 0 1 1 -.07-1l8.62-.56a.5.5 0 0 1 .53.46.49.49 0 0 1 -.47.53z" opacity=".2"/><path d="m340.43 210.22-2.59-.54-2.39 1.34-.92-5.78 4.97-.8z" fill="#16a34a"/><path d="m340.43 210.22-2.59-.54-2.39 1.34-.92-5.78 4.97-.8z" fill="#fff" opacity=".2"/><path d="m336.26 200.05.55.25.54-.28.46.37.59-.14.36.48.61.01.23.56.58.16.08.59.53.3-.07.6.44.42-.22.56.32.51-.35.5.19.57-.47.4.04.6-.55.26-.12.6-.59.12-.26.54-.6-.03-.39.46-.58-.18-.49.35-.52-.31-.56.21-.42-.43-.6.07-.3-.53-.6-.08-.15-.58-.56-.23-.01-.6-.49-.36.15-.59-.38-.47.28-.53-.25-.55.4-.45-.1-.59.5-.33.05-.6.57-.2.19-.57.6-.05.33-.51.6.11z" fill="#16a34a"/><path d="m340.54 203.72a3.65 3.65 0 1 1 -4.17-3 3.64 3.64 0 0 1 4.17 3z" fill="#fff" opacity=".4"/><path d="m337 204v.65l.52-.08v.52l-.53.09v.82l-.5.08v-.82l-.44.07v.82l-.51.08v-.82l-.5.08v-.49l.51-.08v-.66l-.5.08v-.52l.5-.08v-.94l.5-.08v.94l.44-.07v-.94l.51-.08v.93l.52-.08v.52zm-.51.08-.43.07v.65l.43-.07z" fill="#16a34a"/><path d="m338.72 205.74-.41-2.59-.43.07-.06-.35a.72.72 0 0 0 .32-.2.64.64 0 0 0 .2-.32h.35l.54 3.36z" fill="#16a34a"/><path d="m331.76 187.11a8.74 8.74 0 0 0 -1.68-1.45c-.4-.1-6.73.73-6.73.73v2.34s8.11-.16 8.41-1.62z" fill="#e4897b"/><path d="m385.13 230.68c-.3 1.73-.62 3.7-1 5.81-.1.62-.2 1.26-.3 1.91-1.73-3.67.06-8.14.06-8.14z" opacity=".2"/><path d="m386.55 222.92s11.41 3.22 15.6 2.63.37-19.81.37-19.81l6.76-2.11s5.43 19.22 2.89 28.25-27.8 3.33-27.8 3.33-1.9-6.67 2.18-12.29z" fill="#16a34a"/><path d="m386.55 222.92s11.41 3.22 15.6 2.63.37-19.81.37-19.81l6.76-2.11s5.43 19.22 2.89 28.25-27.8 3.33-27.8 3.33-1.9-6.67 2.18-12.29z" fill="#fff" opacity=".6"/><path d="m418 184.45a3.21 3.21 0 0 1 1.84-1.89 4.06 4.06 0 0 1 2.43-.16 4 4 0 0 1 2.09 1.26 3.11 3.11 0 0 1 .36.51 2.34 2.34 0 0 1 .27.55l.11.28.07.27.12.55a5.73 5.73 0 0 1 -1 4.23 7.89 7.89 0 0 1 -3.23 2.66 11.26 11.26 0 0 1 -3.91 1 12.15 12.15 0 0 1 -2 0 11.26 11.26 0 0 0 -1.82 0 2.53 2.53 0 0 0 -1.45.62 1.12 1.12 0 0 0 -.34 1.25.9.9 0 0 0 1.1.43.73.73 0 0 0 .05-1.27.84.84 0 0 1 .75.71 1.15 1.15 0 0 1 -.45 1.09 1.31 1.31 0 0 1 -1.22.18 1.63 1.63 0 0 1 -1-.76 2 2 0 0 1 .41-2.27 3.48 3.48 0 0 1 2-1 11.68 11.68 0 0 1 2-.08 12.41 12.41 0 0 0 1.83-.12 10.34 10.34 0 0 0 3.42-1.07 6.42 6.42 0 0 0 2.55-2.25 4.37 4.37 0 0 0 .57-3.25 2.24 2.24 0 0 0 -2.69-1.76 4.16 4.16 0 0 0 -2.47 2.58z" fill="#16a34a"/><path d="m400.52 180.1a3.18 3.18 0 0 0 -.74-2.53 4 4 0 0 0 -2.07-1.27 3.89 3.89 0 0 0 -2.43.13 2.93 2.93 0 0 0 -.56.28 2.66 2.66 0 0 0 -.5.36l-.23.2-.19.21-.36.42a5.74 5.74 0 0 0 -1.12 4.2 8 8 0 0 0 1.6 3.86 11.41 11.41 0 0 0 3 2.73 13.67 13.67 0 0 0 1.76 1 10.62 10.62 0 0 1 1.62.82 2.55 2.55 0 0 1 1 1.23 1.13 1.13 0 0 1 -.3 1.26.89.89 0 0 1 -1.17-.13.72.72 0 0 1 .54-1.15.83.83 0 0 0 -1 .28 1.14 1.14 0 0 0 -.12 1.17 1.32 1.32 0 0 0 1 .73 1.59 1.59 0 0 0 1.21-.23 2 2 0 0 0 .7-2.19 3.47 3.47 0 0 0 -1.26-1.79 12.31 12.31 0 0 0 -1.74-1 11.87 11.87 0 0 1 -1.56-1 10.34 10.34 0 0 1 -2.52-2.55 6.45 6.45 0 0 1 -1.2-3.18 4.36 4.36 0 0 1 1-3.14 2.26 2.26 0 0 1 3.21-.3 4.14 4.14 0 0 1 1 3.44z" fill="#16a34a"/><g opacity=".2"><path d="m418 184.45a3.21 3.21 0 0 1 1.84-1.89 4.06 4.06 0 0 1 2.43-.16 4 4 0 0 1 2.09 1.26 3.11 3.11 0 0 1 .36.51 2.34 2.34 0 0 1 .27.55l.11.28.07.27.12.55a5.73 5.73 0 0 1 -1 4.23 7.89 7.89 0 0 1 -3.23 2.66 11.26 11.26 0 0 1 -3.91 1 12.15 12.15 0 0 1 -2 0 11.26 11.26 0 0 0 -1.82 0 2.53 2.53 0 0 0 -1.45.62 1.12 1.12 0 0 0 -.34 1.25.9.9 0 0 0 1.1.43.73.73 0 0 0 .05-1.27.84.84 0 0 1 .75.71 1.15 1.15 0 0 1 -.45 1.09 1.31 1.31 0 0 1 -1.22.18 1.63 1.63 0 0 1 -1-.76 2 2 0 0 1 .41-2.27 3.48 3.48 0 0 1 2-1 11.68 11.68 0 0 1 2-.08 12.41 12.41 0 0 0 1.83-.12 10.34 10.34 0 0 0 3.42-1.07 6.42 6.42 0 0 0 2.55-2.25 4.37 4.37 0 0 0 .57-3.25 2.24 2.24 0 0 0 -2.69-1.76 4.16 4.16 0 0 0 -2.47 2.58z"/><path d="m400.52 180.1a3.18 3.18 0 0 0 -.74-2.53 4 4 0 0 0 -2.07-1.27 3.89 3.89 0 0 0 -2.43.13 2.93 2.93 0 0 0 -.56.28 2.66 2.66 0 0 0 -.5.36l-.23.2-.19.21-.36.42a5.74 5.74 0 0 0 -1.12 4.2 8 8 0 0 0 1.6 3.86 11.41 11.41 0 0 0 3 2.73 13.67 13.67 0 0 0 1.76 1 10.62 10.62 0 0 1 1.62.82 2.55 2.55 0 0 1 1 1.23 1.13 1.13 0 0 1 -.3 1.26.89.89 0 0 1 -1.17-.13.72.72 0 0 1 .54-1.15.83.83 0 0 0 -1 .28 1.14 1.14 0 0 0 -.12 1.17 1.32 1.32 0 0 0 1 .73 1.59 1.59 0 0 0 1.21-.23 2 2 0 0 0 .7-2.19 3.47 3.47 0 0 0 -1.26-1.79 12.31 12.31 0 0 0 -1.74-1 11.87 11.87 0 0 1 -1.56-1 10.34 10.34 0 0 1 -2.52-2.55 6.45 6.45 0 0 1 -1.2-3.18 4.36 4.36 0 0 1 1-3.14 2.26 2.26 0 0 1 3.21-.3 4.14 4.14 0 0 1 1 3.44z"/></g><path d="m409.35 194.73c4-.8 7.81-4.22 9.66-9.15l.85-2.27-20.43-5.07-.31 2.4c-.67 5.23 1.07 10 4.25 12.61a2.92 2.92 0 0 1 1 2.91l-1 4.51a2.26 2.26 0 0 1 -2.38 1.77 4.07 4.07 0 0 0 -2.79.79l-1 .75 12.64 3.13-.54-1.11a4.1 4.1 0 0 0 -2.09-2 2.26 2.26 0 0 1 -1.29-2.67l1.2-4.47a3 3 0 0 1 2.23-2.13z" fill="#16a34a"/><path d="m396.77 202.75 13.97 3.47-.6 4.67-15.02-3.73z" fill="#263238"/><path d="m399.96 203.54 7.59 1.89-.6 4.67-8.64-2.15z" fill="#fff" opacity=".2"/><path d="m400.87 205.8h4.68v1.82h-4.68z" fill="#fff" transform="matrix(.97050647 .24107506 -.24107506 .97050647 61.71 -91.09)"/><path d="m404.06 192.88a3.3 3.3 0 0 1 .84 3.14l-1.27 5.09c-.25 1-.63 1.31-1.79 1.45a4 4 0 0 0 -1.91.64l2.12.53a2.55 2.55 0 0 1 .75-.25l.33-.06a1.13 1.13 0 0 0 .93-.85l2.06-8.28a2 2 0 0 0 -.37-1.71l-.4-.5a10.25 10.25 0 0 1 -2.18-7.35l.45-4.85-3.07-.76-.2 5.59a11.45 11.45 0 0 0 3.71 8.17z" fill="#fff" opacity=".3"/><path d="m409.6 195.88a31.44 31.44 0 0 0 -4.16-2.25c-.95-.25-1.52.18-2.24 2.25s-1.85 4.25-1.52 4.49 1.07.78 1.79 1.22a22.68 22.68 0 0 0 3.21 1.16z" fill="#e4897b"/><path d="m421.12 255.13h-106.71a8.06 8.06 0 0 1 -8.05-8v-79.99a8.06 8.06 0 0 1 8.05-8h106.71a8.06 8.06 0 0 1 8.05 8v79.94a8.06 8.06 0 0 1 -8.05 8.05zm-106.71-94a6.05 6.05 0 0 0 -6.05 6v79.94a6.05 6.05 0 0 0 6.05 6h106.71a6.06 6.06 0 0 0 6.05-6v-79.93a6.06 6.06 0 0 0 -6.05-6z" fill="#16a34a"/><path d="m421.12 255.13h-106.71a8.06 8.06 0 0 1 -8.05-8v-79.99a8.06 8.06 0 0 1 8.05-8h106.71a8.06 8.06 0 0 1 8.05 8v79.94a8.06 8.06 0 0 1 -8.05 8.05zm-106.71-94a6.05 6.05 0 0 0 -6.05 6v79.94a6.05 6.05 0 0 0 6.05 6h106.71a6.06 6.06 0 0 0 6.05-6v-79.93a6.06 6.06 0 0 0 -6.05-6z" fill="#fff" opacity=".4"/><circle cx="306.52" cy="213.44" fill="#16a34a" r="15.2"/><circle cx="306.52" cy="213.44" opacity=".4" r="13.14"/><path d="m298.92 212.21 5.81 6.75 8.82-11.82" fill="none" stroke="#16a34a" stroke-linecap="round" stroke-linejoin="round" stroke-width="2"/><path d="m105.07 192.43s-1.55-1.65-1.21-2.34 1.24-1.29.86-2.17 1.2-2.26 3-2.76c0 0-.12 1.15 1.39 1.41s3.62 0 3.36 1.35c0 0 4.43 1.09 4.79 3.86s-12.19.65-12.19.65z" fill="#16a34a"/><path d="m105.07 192.43s-1.55-1.65-1.21-2.34 1.24-1.29.86-2.17 1.2-2.26 3-2.76c0 0-.12 1.15 1.39 1.41s3.62 0 3.36 1.35c0 0 4.43 1.09 4.79 3.86s-12.19.65-12.19.65z" fill="#fff" opacity=".7"/><path d="m97.02 191.32h27.3v8.55h-27.3z" fill="#16a34a"/><path d="m107.18 191.32h17.14v8.55h-17.14z" opacity=".2"/><path d="m90.95 199.36h-7.12l1-10.12h5.12z" fill="#16a34a"/><path d="m90.95 199.36h-7.12l1-10.12h5.12z" fill="#fff" opacity=".4"/><path d="m91 199h-7.25a.43.43 0 0 0 -.43.43.43.43 0 0 0 .43.43h7.25a.43.43 0 0 0 .43-.43.43.43 0 0 0 -.43-.43z" fill="#16a34a"/><path d="m91 199h-7.25a.43.43 0 0 0 -.43.43.43.43 0 0 0 .43.43h7.25a.43.43 0 0 0 .43-.43.43.43 0 0 0 -.43-.43z" fill="#fff" opacity=".5"/><path d="m90.95 195.9h-7.12l1-10.13h5.12z" fill="#16a34a"/><path d="m90.95 195.9h-7.12l1-10.13h5.12z" fill="#fff" opacity=".4"/><path d="m91 195.55h-7.25a.43.43 0 0 0 -.43.43.43.43 0 0 0 .43.43h7.25a.43.43 0 0 0 .43-.43.43.43 0 0 0 -.43-.43z" fill="#16a34a"/><path d="m91 195.55h-7.25a.43.43 0 0 0 -.43.43.43.43 0 0 0 .43.43h7.25a.43.43 0 0 0 .43-.43.43.43 0 0 0 -.43-.43z" fill="#fff" opacity=".5"/><path d="m90.95 192.43h-7.12l1-10.12h5.12z" fill="#16a34a"/><path d="m90.95 192.43h-7.12l1-10.12h5.12z" fill="#fff" opacity=".4"/><path d="m91 192.09h-7.25a.43.43 0 0 0 0 .86h7.25a.43.43 0 1 0 0-.86z" fill="#16a34a"/><path d="m91 192.09h-7.25a.43.43 0 0 0 0 .86h7.25a.43.43 0 1 0 0-.86z" fill="#fff" opacity=".5"/><path d="m90.95 188.97h-7.12l1-10.12h5.12z" fill="#16a34a"/><path d="m90.95 188.97h-7.12l1-10.12h5.12z" fill="#fff" opacity=".4"/><path d="m91 188.63h-7.25a.43.43 0 1 0 0 .85h7.25a.43.43 0 1 0 0-.85z" fill="#16a34a"/><path d="m91 188.63h-7.25a.43.43 0 1 0 0 .85h7.25a.43.43 0 1 0 0-.85z" fill="#fff" opacity=".5"/><path d="m90.95 185.51h-7.12l1-10.13h5.12z" fill="#16a34a"/><path d="m90.95 185.51h-7.12l1-10.13h5.12z" fill="#fff" opacity=".4"/><path d="m91 185.16h-7.25a.43.43 0 0 0 -.43.43.43.43 0 0 0 .43.43h7.25a.43.43 0 0 0 .43-.43.43.43 0 0 0 -.43-.43z" fill="#16a34a"/><path d="m91 185.16h-7.25a.43.43 0 0 0 -.43.43.43.43 0 0 0 .43.43h7.25a.43.43 0 0 0 .43-.43.43.43 0 0 0 -.43-.43z" fill="#fff" opacity=".5"/><path d="m90.95 182.04h-7.12l1-10.12h5.12z" fill="#16a34a"/><path d="m90.95 182.04h-7.12l1-10.12h5.12z" fill="#fff" opacity=".4"/><path d="m91 181.7h-7.25a.43.43 0 0 0 -.43.43.43.43 0 0 0 .43.43h7.25a.43.43 0 0 0 .43-.43.43.43 0 0 0 -.43-.43z" fill="#16a34a"/><path d="m91 181.7h-7.25a.43.43 0 0 0 -.43.43.43.43 0 0 0 .43.43h7.25a.43.43 0 0 0 .43-.43.43.43 0 0 0 -.43-.43z" fill="#fff" opacity=".5"/><path d="m90.95 178.58h-7.12l1-10.13h5.12z" fill="#16a34a"/><path d="m90.95 178.58h-7.12l1-10.13h5.12z" fill="#fff" opacity=".4"/><path d="m91 178.24h-7.25a.43.43 0 1 0 0 .85h7.25a.43.43 0 1 0 0-.85z" fill="#16a34a"/><path d="m91 178.24h-7.25a.43.43 0 1 0 0 .85h7.25a.43.43 0 1 0 0-.85z" fill="#fff" opacity=".5"/><path d="m140.42 203.49v213.75h-71.42v-213.75a3.6 3.6 0 0 1 3.61-3.61h64.19a3.61 3.61 0 0 1 3.62 3.61z" fill="#16a34a"/><path d="m133.59 238.28v57.18a4 4 0 0 1 -4 4h-49.74a4 4 0 0 1 -4-4v-57.18a4 4 0 0 1 4-4h49.75a4 4 0 0 1 3.99 4z" opacity=".2"/><path d="m68.83 410.04h71.77v2.46h-71.77z" opacity=".2"/><path d="m140.61 321.04h-71.78v2.47h27.19l1.31 2.34h12.61l1.31-2.34h29.36z" opacity=".2"/><path d="m133.59 199.88v20.38a3.47 3.47 0 0 1 -3.47 3.47h-50.79a3.47 3.47 0 0 1 -3.47-3.47v-20.38z" fill="#fff" opacity=".3"/><path d="m84.73 230.06h6.27a1 1 0 0 1 1 1v3.19a0 0 0 0 1 0 0h-8.31a0 0 0 0 1 0 0v-3.15a1 1 0 0 1 1.04-1.04z" fill="#fff" opacity=".3"/><path d="m101.61 230.06h6.23a1 1 0 0 1 1 1v3.19a0 0 0 0 1 0 0h-8.31a0 0 0 0 1 0 0v-3.15a1 1 0 0 1 1.08-1.04z" fill="#fff" opacity=".3"/><path d="m118.49 230.06h6.23a1 1 0 0 1 1 1v3.19a0 0 0 0 1 0 0h-8.31a0 0 0 0 1 0 0v-3.15a1 1 0 0 1 1.08-1.04z" fill="#fff" opacity=".3"/><path d="m86.98 221.19h1.71v.92h-1.71z" fill="#16a34a"/><path d="m120.74 221.19h1.71v.92h-1.71z" fill="#16a34a"/><path d="m103.86 221.19h1.71v.92h-1.71z" fill="#16a34a"/><g opacity=".2"><path d="m86.99 234.29h1.71v1.96h-1.71z"/><path d="m120.75 234.29h1.71v1.96h-1.71z"/><path d="m103.87 234.29h1.71v1.96h-1.71z"/></g><path d="m132.22 298.4v.07a4 4 0 0 1 -2.62 1h-49.75a4 4 0 0 1 -2.62-1v-.07a1.25 1.25 0 0 1 1.25-1.25h52.52a1.25 1.25 0 0 1 1.22 1.25z" opacity=".2"/><path d="m84.95 199.36h-7.12l1-10.12h5.12z" fill="#16a34a"/><path d="m84.95 199.36h-7.12l1-10.12h5.12z" fill="#fff" opacity=".6"/><path d="m85 199h-7.25a.43.43 0 0 0 -.43.43.43.43 0 0 0 .43.43h7.25a.43.43 0 0 0 .43-.43.43.43 0 0 0 -.43-.43z" fill="#16a34a"/><path d="m85 199h-7.25a.43.43 0 0 0 -.43.43.43.43 0 0 0 .43.43h7.25a.43.43 0 0 0 .43-.43.43.43 0 0 0 -.43-.43z" fill="#fff" opacity=".8"/><path d="m84.95 195.9h-7.12l1-10.13h5.12z" fill="#16a34a"/><path d="m84.95 195.9h-7.12l1-10.13h5.12z" fill="#fff" opacity=".6"/><path d="m85 195.55h-7.25a.43.43 0 0 0 -.43.43.43.43 0 0 0 .43.43h7.25a.43.43 0 0 0 .43-.43.43.43 0 0 0 -.43-.43z" fill="#16a34a"/><path d="m85 195.55h-7.25a.43.43 0 0 0 -.43.43.43.43 0 0 0 .43.43h7.25a.43.43 0 0 0 .43-.43.43.43 0 0 0 -.43-.43z" fill="#fff" opacity=".8"/><path d="m84.95 192.43h-7.12l1-10.12h5.12z" fill="#16a34a"/><path d="m84.95 192.43h-7.12l1-10.12h5.12z" fill="#fff" opacity=".6"/><path d="m85 192.09h-7.25a.43.43 0 0 0 0 .86h7.25a.43.43 0 1 0 0-.86z" fill="#16a34a"/><path d="m85 192.09h-7.25a.43.43 0 0 0 0 .86h7.25a.43.43 0 1 0 0-.86z" fill="#fff" opacity=".8"/><path d="m84.95 188.97h-7.12l1-10.12h5.12z" fill="#16a34a"/><path d="m84.95 188.97h-7.12l1-10.12h5.12z" fill="#fff" opacity=".6"/><path d="m85 188.63h-7.25a.43.43 0 1 0 0 .85h7.25a.43.43 0 1 0 0-.85z" fill="#16a34a"/><path d="m85 188.63h-7.25a.43.43 0 1 0 0 .85h7.25a.43.43 0 1 0 0-.85z" fill="#fff" opacity=".8"/><path d="m84.95 185.51h-7.12l1-10.13h5.12z" fill="#16a34a"/><path d="m84.95 185.51h-7.12l1-10.13h5.12z" fill="#fff" opacity=".6"/><path d="m85 185.16h-7.25a.43.43 0 0 0 -.43.43.43.43 0 0 0 .43.43h7.25a.43.43 0 0 0 .43-.43.43.43 0 0 0 -.43-.43z" fill="#16a34a"/><path d="m85 185.16h-7.25a.43.43 0 0 0 -.43.43.43.43 0 0 0 .43.43h7.25a.43.43 0 0 0 .43-.43.43.43 0 0 0 -.43-.43z" fill="#fff" opacity=".8"/><path d="m84.95 182.04h-7.12l1-10.12h5.12z" fill="#16a34a"/><path d="m84.95 182.04h-7.12l1-10.12h5.12z" fill="#fff" opacity=".6"/><path d="m85 181.7h-7.25a.43.43 0 0 0 -.43.43.43.43 0 0 0 .43.43h7.25a.43.43 0 0 0 .43-.43.43.43 0 0 0 -.43-.43z" fill="#16a34a"/><path d="m85 181.7h-7.25a.43.43 0 0 0 -.43.43.43.43 0 0 0 .43.43h7.25a.43.43 0 0 0 .43-.43.43.43 0 0 0 -.43-.43z" fill="#fff" opacity=".8"/><path d="m84.95 178.58h-7.12l1-10.13h5.12z" fill="#16a34a"/><path d="m84.95 178.58h-7.12l1-10.13h5.12z" fill="#fff" opacity=".6"/><path d="m85 178.24h-7.25a.43.43 0 1 0 0 .85h7.25a.43.43 0 1 0 0-.85z" fill="#16a34a"/><path d="m85 178.24h-7.25a.43.43 0 1 0 0 .85h7.25a.43.43 0 1 0 0-.85z" fill="#fff" opacity=".8"/><path d="m93.95 199.36h-7.12l1-10.12h5.12z" fill="#16a34a"/><path d="m93.95 199.36h-7.12l1-10.12h5.12z" fill="#fff" opacity=".6"/><path d="m94 199h-7.25a.43.43 0 0 0 -.43.43.43.43 0 0 0 .43.43h7.25a.43.43 0 0 0 .43-.43.43.43 0 0 0 -.43-.43z" fill="#16a34a"/><path d="m94 199h-7.25a.43.43 0 0 0 -.43.43.43.43 0 0 0 .43.43h7.25a.43.43 0 0 0 .43-.43.43.43 0 0 0 -.43-.43z" fill="#fff" opacity=".8"/><path d="m93.95 195.9h-7.12l1-10.13h5.12z" fill="#16a34a"/><path d="m93.95 195.9h-7.12l1-10.13h5.12z" fill="#fff" opacity=".6"/><path d="m94 195.55h-7.25a.43.43 0 0 0 -.43.43.43.43 0 0 0 .43.43h7.25a.43.43 0 0 0 .43-.43.43.43 0 0 0 -.43-.43z" fill="#16a34a"/><path d="m94 195.55h-7.25a.43.43 0 0 0 -.43.43.43.43 0 0 0 .43.43h7.25a.43.43 0 0 0 .43-.43.43.43 0 0 0 -.43-.43z" fill="#fff" opacity=".8"/><path d="m93.95 192.43h-7.12l1-10.12h5.12z" fill="#16a34a"/><path d="m93.95 192.43h-7.12l1-10.12h5.12z" fill="#fff" opacity=".6"/><path d="m94 192.09h-7.25a.43.43 0 0 0 0 .86h7.25a.43.43 0 1 0 0-.86z" fill="#16a34a"/><path d="m94 192.09h-7.25a.43.43 0 0 0 0 .86h7.25a.43.43 0 1 0 0-.86z" fill="#fff" opacity=".8"/><path d="m93.95 188.97h-7.12l1-10.12h5.12z" fill="#16a34a"/><path d="m93.95 188.97h-7.12l1-10.12h5.12z" fill="#fff" opacity=".6"/><path d="m94 188.63h-7.25a.43.43 0 1 0 0 .85h7.25a.43.43 0 1 0 0-.85z" fill="#16a34a"/><path d="m94 188.63h-7.25a.43.43 0 1 0 0 .85h7.25a.43.43 0 1 0 0-.85z" fill="#fff" opacity=".8"/><path d="m109.6 189.75h7.12l-1 10.13h-5.12z" fill="#16a34a"/><path d="m109.6 189.75h7.12l-1 10.13h-5.12z" fill="#fff" opacity=".6"/><path d="m109.52 190.09h7.29a.43.43 0 1 0 0-.85h-7.29a.43.43 0 1 0 0 .85z" fill="#16a34a"/><path d="m109.52 190.09h7.29a.43.43 0 1 0 0-.85h-7.29a.43.43 0 1 0 0 .85z" fill="#fff" opacity=".8"/><path d="m169.19 403.11 7.86-5a.65.65 0 0 1 .85.07l4.74 4.93a1.18 1.18 0 0 1 -.13 1.66l-.2.14c-2.74 1.68-4.23 2.44-7.65 4.61-2.1 1.33-11 6.12-14.29 6.35s-3.66-2.88-2.32-3.38c6.76-2.52 9.39-5.74 10.25-8.27a2.22 2.22 0 0 1 .89-1.11z" fill="#263238"/><path d="m145.68 236s-19.92 60.23-18.68 83c1.39 25 40.15 85 40.15 85l13.57-5.45s-29.72-61.75-30.65-80.93c1.31-27.76 27-87.59 27-87.59z" fill="#263238"/><path d="m145.68 236s-19.92 60.23-18.68 83c1.39 25 40.15 85 40.15 85l13.57-5.45s-29.72-61.75-30.65-80.93c1.31-27.76 27-87.59 27-87.59z" fill="#fff" opacity=".2"/><path d="m167.27 246.47c-7 4.28-9.77 22.54-8.29 31.81 3.78-11.74 8.1-23.31 11.56-32.18a3.24 3.24 0 0 0 -3.27.37z" opacity=".2"/><path d="m183.58 408.29h9.55a.68.68 0 0 1 .67.54l1.55 7a1.18 1.18 0 0 1 -1.15 1.4c-3.09-.05-5.34-.24-9.22-.24-2.39 0-9.6.25-12.9.25s-3.73-3.26-2.38-3.56c6.06-1.32 10.62-3.15 12.56-4.89a1.89 1.89 0 0 1 1.32-.5z" fill="#263238"/><path d="m161.58 228.91s3.42 67.32 6.77 90.09c3.63 25 12.57 89.9 12.57 89.9l13.67-.1s-2.4-62.46-3.76-87c-1.56-28-2.61-85.27-2.61-85.27z" fill="#263238"/><path d="m161.58 228.91s3.42 67.32 6.77 90.09c3.63 25 12.57 89.9 12.57 89.9l13.67-.1s-2.4-62.46-3.76-87c-1.56-28-2.61-85.27-2.61-85.27z" fill="#fff" opacity=".2"/><path d="m146.22 231.53h42v5l-42.54-.52z" fill="#263238"/><path d="m173.22 229.28h1.5v8.88h-1.5z" fill="#263238"/><path d="m151.97 229.28h1.5v8.88h-1.5z" fill="#263238"/><path d="m157.59 230.65h7.77v5.6h-7.77z" fill="#fff"/><path d="m173.22 229.28h1.5v8.88h-1.5z" fill="#fff" opacity=".2"/><path d="m151.97 229.28h1.5v8.88h-1.5z" fill="#fff" opacity=".2"/><path d="m150.38 158.84c-6.94-.06-31.34 31.06-32.13 42.53s8 10.55 13.32 6.86 9.76-15.16 9.76-15.16l-4.75-3.17s7.52-8.08 11.61-9.51z" fill="#16a34a"/><path d="m150.38 158.84-1.29 12.74-.9 8.81c-4.09 1.43-11.61 9.51-11.61 9.51l4.75 3.17s-4.48 11.47-9.76 15.16-14.11 4.62-13.32-6.86 25.19-42.59 32.13-42.53z" fill="#fff" opacity=".6"/><path d="m150.38 158.84s26.54-1.25 46.31 3.74c0 0-8.73 43.95-8.4 68.95h-42.07s-2.74-46.89 4.16-72.69z" fill="#16a34a"/><path d="m196.69 162.58s-1.74 8.76-3.64 20.68c-.7 4.43-1.43 9.3-2.1 14.32-1.55 11.72-2.79 24.26-2.66 33.95h-42.07s-2.73-46.89 4.16-72.69c0 0 26.54-1.25 46.31 3.74z" fill="#fff" opacity=".6"/><path d="m164.25 162.21 1.11 5.49s-6.39 26.66-7.77 40.5l2.33 2.33 3.67-2.33s.33-28.17 3.56-40l5.8-4.75-4.56-1.45z" fill="#263238"/><path d="m182.49 159.23-4.82 2.3c-.9.43-1.85.85-2.8 1.31-2.88-.32-6.31-1.13-8.14-3.09 2.3-2.14 3-6.42 3-10.79a49.27 49.27 0 0 0 -.29-4.92c-.17-1.62-.4-3.13-.63-4.4l7.32 6.43 3.52 3.09a21 21 0 0 0 -.47 2.17 10.13 10.13 0 0 0 0 4 5.79 5.79 0 0 0 3.31 3.9z" fill="#e4897b"/><path d="m179.17 155.29c-3.17.67-7.46-2.07-9.47-6.33a11.48 11.48 0 0 1 -1.15-5.18l.86.26 6.69 2 3.52 3.09a21 21 0 0 0 -.47 2.17 10.13 10.13 0 0 0 .02 3.99z" opacity=".2"/><path d="m184.14 121.21s4 10.2-.68 15.54-9.15-14.33-9.15-14.33z" fill="#263238"/><path d="m169.09 148.84a9.82 9.82 0 0 0 11.85 1.22 10.94 10.94 0 0 0 5-6.35c.11-.36.2-.74.28-1.13 1.29-7.08-.39-18.57-8.18-21.25a10.66 10.66 0 0 0 -14.1 11.43c.85 7.74 1 12.33 5.15 16.08z" fill="#e4897b"/><path d="m175.83 134.29c0 .63.39 1.13.81 1.11s.72-.56.69-1.19-.4-1.13-.81-1.1-.72.54-.69 1.18z" fill="#263238"/><path d="m183 133.91c0 .63.4 1.12.81 1.1s.72-.56.69-1.19-.4-1.13-.81-1.1-.69.59-.69 1.19z" fill="#263238"/><path d="m180.73 134.34a22.09 22.09 0 0 0 3.32 5.25 3.67 3.67 0 0 1 -3 .74z" fill="#de5753"/><path d="m173.48 132.1a.4.4 0 0 0 .36-.17 3 3 0 0 1 2.31-1.37.38.38 0 0 0 .38-.36.37.37 0 0 0 -.37-.38 3.71 3.71 0 0 0 -2.94 1.69.37.37 0 0 0 .09.52.56.56 0 0 0 .17.07z" fill="#263238"/><path d="m180.18 143.66a5.72 5.72 0 0 1 -5.07-1.43.2.2 0 0 1 0-.28.19.19 0 0 1 .27 0 5.5 5.5 0 0 0 4.72 1.31.18.18 0 0 1 .22.14.2.2 0 0 1 -.14.23z" fill="#263238"/><path d="m185.93 131.27a.33.33 0 0 0 .22 0 .37.37 0 0 0 .15-.5 3.72 3.72 0 0 0 -2.79-2 .38.38 0 0 0 -.4.35.37.37 0 0 0 .35.39 3 3 0 0 1 2.18 1.58.39.39 0 0 0 .29.18z" fill="#263238"/><path d="m169.09 122.75.77 3.37a2.56 2.56 0 0 0 -1 3.34c1.39 2.76.22 7.38-1.81 9.38 0 0-.19-1.24-1.21-.84s-.07 6.86 2.29 9.74c0 0-3.38-2.48-5.82-9.1-2.26-6.13-3-11.35-2-13.92z" fill="#263238"/><path d="m160.86 139.32a7.45 7.45 0 0 0 4.44 3.51c2.51.69 3.75-1.55 3.06-3.92-.64-2.09-2.7-5-5.22-4.67s-3.43 2.96-2.28 5.08z" fill="#e4897b"/><path d="m182.92 121.89s.5 4.13-10.27 6a15.72 15.72 0 0 0 7.16-4.24s-3.91 2.81-12 4.88-6.6 6.55-6.6 6.55a12.28 12.28 0 0 1 -1-13.43c4-7.61 20.67-9.59 23.24-2.26 0 0 4.08.39 2.31 9.08z" fill="#263238"/><path d="m179.89 155.36-11.09 5-.65-4-4.07 1.43a3.35 3.35 0 0 0 -2.23 3.51l.46 4.4 5.63-3.08 2.8 4 13.32-6.41z" fill="#16a34a"/><path d="m179.89 155.36-11.09 5-.65-4-4.07 1.43a3.35 3.35 0 0 0 -2.23 3.51l.46 4.4 5.63-3.08 2.8 4 13.32-6.41z" fill="#fff" opacity=".7"/><path d="m193.05 183.26c-.7 4.43-1.43 9.3-2.1 14.32a21.16 21.16 0 0 1 -.82-17.19z" opacity=".2"/><path d="m196.69 162.58c4.78 2.2 20.31 33.35 19.28 50.94-.97 17.13-27.75 38.48-27.75 38.48s-5.79-4.7-6.6-8.74c0 0 18.85-19.53 19.35-29.77.49-10.06-10.5-28-10.5-28s-1.25-7.5 1-14 5.22-8.91 5.22-8.91z" fill="#16a34a"/><path d="m196.69 162.58c4.78 2.2 20.31 33.35 19.28 50.94-.97 17.13-27.75 38.48-27.75 38.48s-5.79-4.7-6.6-8.74c0 0 18.85-19.53 19.35-29.77.49-10.06-10.5-28-10.5-28s-1.25-7.5 1-14 5.22-8.91 5.22-8.91z" fill="#fff" opacity=".6"/><path d="m149.09 171.58-.9 8.81c-4.09 1.43-11.61 9.51-11.61 9.51l-4.35-2.77-7.64 8c.41-.72 13.41-21.63 24.5-23.55z" opacity=".2"/><path d="m181.62 239.13s4.36 9.78 8 11.76c0 0 .79 3.31-2.38 7.81s-15.39-10.97-5.62-19.57z" fill="#263238"/><path d="m181.62 239.13s4.36 9.78 8 11.76c0 0 .79 3.31-2.38 7.81s-15.39-10.97-5.62-19.57z" fill="#fff" opacity=".2"/><path d="m191.55 200.45s0 .39 0 1.1c0 1.46-.09 4.28-.27 7.8-.2 3.92-.54 8.72-1.11 13.44a89.12 89.12 0 0 1 -1.93 10.93l-42.24-.27a93.08 93.08 0 0 1 -1-12.14c-.16-6.43 0-13.18.25-18.09.2-4.33.41-7.24.41-7.24.15-2.09.34-4.13.55-6.11a172.68 172.68 0 0 1 6.09-31.19l1.14-.06 5.56-.32.92-.05c-1.37 13.12 2.4 29.63 2.4 29.63 10.57-17.1 26.33-27.52 26.33-27.52l2.32.57 3 .74 1.22.3c-11.4 21.36-3.64 38.48-3.64 38.48z" fill="#16a34a"/><path d="m191.55 200.45s0 .39 0 1.1c-1.86-2.22-4.7-7.42-4.07-18.22.67-11.56 4.5-18.68 6.5-21.66l1.22.3c-11.41 21.36-3.65 38.48-3.65 38.48z" fill="#fff" opacity=".4"/><path d="m191 160.93c-4.89 3.3-21.79 15.45-29.15 30.39 0 0-5.34-15.86-2.82-33l.92-.05c-1.37 13.12 2.4 29.63 2.4 29.63 10.57-17.1 26.33-27.52 26.33-27.52z" fill="#fff" opacity=".4"/><path d="m153.46 158.62a159.07 159.07 0 0 0 -4.32 19.28 80.89 80.89 0 0 1 -2.91 12 172.68 172.68 0 0 1 6.09-31.19z" fill="#fff" opacity=".4"/><path d="m147.37 199.88 2 10.8-4.37 10.63c-.16-6.43 0-13.18.25-18.09z" fill="#fff" opacity=".2"/><path d="m153.86 199.88 2.64 12.13-4.53 12.31-2.57-13.64z" fill="#fff" opacity=".2"/><path d="m160.96 199.88 3.49 12.42-5.08 12.94-2.87-13.23z" fill="#fff" opacity=".2"/><path d="m169.33 199.88 3.4 15.45-4.31 11.1-3.97-14.13z" fill="#fff" opacity=".2"/><path d="m178.08 201.55 2.48 12.31-5.36 12.7-2.47-11.23z" fill="#fff" opacity=".2"/><path d="m185.75 201.55 2.84 13.74-5.35 11.93-2.68-13.36z" fill="#fff" opacity=".2"/><path d="m191.26 209.35c-.2 3.92-.54 8.72-1.11 13.44l-1.56-7.5z" fill="#fff" opacity=".2"/><path d="m133.12 187.85 5.39-5.73s1.54-5.68 2.09-6.11 6.73-2 6.73-2l1 11.8a11 11 0 0 1 -5.47 2l-2.69 4.63z" fill="#e4897b"/><path d="m143.72 172.9h10.74a.7.7 0 0 1 .7.7v11.73a2.55 2.55 0 0 1 -2.55 2.55h-7a2.55 2.55 0 0 1 -2.55-2.55v-11.73a.7.7 0 0 1 .66-.7z" fill="#263238"/><path d="m149.09 151.93a8.86 8.86 0 0 1 2.39 5.61c0 3.22-4.61 4.42-1.71 10.61a6.11 6.11 0 0 1 -2.9-6.19c.66-4.23 4.44-3.96 2.22-10.03z" fill="#16a34a"/><path d="m149.09 151.93a8.86 8.86 0 0 1 2.39 5.61c0 3.22-4.61 4.42-1.71 10.61a6.11 6.11 0 0 1 -2.9-6.19c.66-4.23 4.44-3.96 2.22-10.03z" fill="#fff" opacity=".8"/></svg>