<svg xmlns="http://www.w3.org/2000/svg" viewBox="0 0 500 500"><g id="freepik--background-simple--inject-47"><path d="M437.4,314.93s51.09-57.42,34.85-157.33-99.67-136.72-155-117.49-67.81,52.7-113,71.84-131.06,6-174,70.29,11.88,170.82,81.67,237.62S359.8,444.84,437.4,314.93Z" style="fill:#16A34A"></path><path d="M437.4,314.93s51.09-57.42,34.85-157.33-99.67-136.72-155-117.49-67.81,52.7-113,71.84-131.06,6-174,70.29,11.88,170.82,81.67,237.62S359.8,444.84,437.4,314.93Z" style="fill:#fff;opacity:0.7000000000000001"></path></g><g id="freepik--Board--inject-47"><rect x="138.04" y="138" width="321.09" height="214.41" style="fill:none;stroke:#000;stroke-linecap:round;stroke-linejoin:round;opacity:0.5"></rect><rect x="142.35" y="140.88" width="312.47" height="208.66" style="fill:none;stroke:#000;stroke-linecap:round;stroke-linejoin:round;opacity:0.5"></rect><path d="M180.18,172.13s3.42,18.47,3.42,23.94v19.15s13.68.68,24.62,0,23.94-7.52,23.94-7.52-4.79-18.47-4.79-23.26S224.64,168,224.64,168Z" style="fill:#fff;stroke:#000;stroke-linecap:round;stroke-linejoin:round;opacity:0.30000000000000004"></path><path d="M181.54,287s-2,15.73-2,22.57-3.42,17.78-3.42,17.78,16.42,6.16,20.52,6.16,21.89-1.37,21.89-1.37l2.74-40.35S187,288.41,181.54,287Z" style="fill:#fff;stroke:#000;stroke-linecap:round;stroke-linejoin:round;opacity:0.30000000000000004"></path><path d="M257.47,202.22l8.2,37.62s10.26.69,21.21.69,29.41-10.26,29.41-10.26-8.89-17.79-8.89-22.57-2.74-18.47-2.74-18.47-28,8.89-32.15,9.57S257.47,202.22,257.47,202.22Z" style="fill:#fff;stroke:#000;stroke-linecap:round;stroke-linejoin:round;opacity:0.30000000000000004"></path><path d="M319,192s-2,24.62-2,27.35-.68,13.68-.68,13.68,13.68,2.06,21.2,2.06,20.52-.69,20.52-.69-.68-23.94.68-26,2.06-13,2.06-13S321.76,192.65,319,192Z" style="fill:#fff;stroke:#000;stroke-linecap:round;stroke-linejoin:round;opacity:0.30000000000000004"></path><path d="M334.07,246.68V263.1c0,2.73-1.37,22.57-1.37,22.57s17.79.68,24.63,0,20.52-4.79,20.52-4.79L375.79,259,374.43,244S341.6,248.74,334.07,246.68Z" style="fill:#fff;stroke:#000;stroke-linecap:round;stroke-linejoin:round;opacity:0.30000000000000004"></path><path d="M437.35,154.35l-15.73.68h-8.21v11.63c0,3.42-.68,14.36-.68,16.41s10.94,3.42,15.73,3.42h17.1l.68-33.51Z" style="fill:#fff;stroke:#000;stroke-linecap:round;stroke-linejoin:round;opacity:0.30000000000000004"></path><g style="opacity:0.5"><line x1="397.68" y1="228.22" x2="427.09" y2="228.22" style="fill:none;stroke:#000;stroke-linecap:round;stroke-linejoin:round"></line><line x1="397.68" y1="235.06" x2="427.09" y2="235.06" style="fill:none;stroke:#000;stroke-linecap:round;stroke-linejoin:round"></line><line x1="397.68" y1="241.9" x2="427.09" y2="241.9" style="fill:none;stroke:#000;stroke-linecap:round;stroke-linejoin:round"></line><line x1="397.68" y1="248.74" x2="427.09" y2="248.74" style="fill:none;stroke:#000;stroke-linecap:round;stroke-linejoin:round"></line></g><g style="opacity:0.5"><line x1="245.84" y1="150.24" x2="342.96" y2="150.24" style="fill:none;stroke:#000;stroke-linecap:round;stroke-linejoin:round"></line><line x1="245.84" y1="157.08" x2="342.96" y2="157.08" style="fill:none;stroke:#000;stroke-linecap:round;stroke-linejoin:round"></line></g><g style="opacity:0.5"><line x1="345.01" y1="299.35" x2="374.43" y2="299.35" style="fill:none;stroke:#000;stroke-linecap:round;stroke-linejoin:round"></line><line x1="345.01" y1="306.19" x2="374.43" y2="306.19" style="fill:none;stroke:#000;stroke-linecap:round;stroke-linejoin:round"></line><line x1="345.01" y1="313.03" x2="374.43" y2="313.03" style="fill:none;stroke:#000;stroke-linecap:round;stroke-linejoin:round"></line><line x1="345.01" y1="319.87" x2="374.43" y2="319.87" style="fill:none;stroke:#000;stroke-linecap:round;stroke-linejoin:round"></line></g><g style="opacity:0.5"><line x1="162.39" y1="254.21" x2="191.8" y2="254.21" style="fill:none;stroke:#000;stroke-linecap:round;stroke-linejoin:round"></line><line x1="162.39" y1="261.05" x2="191.8" y2="261.05" style="fill:none;stroke:#000;stroke-linecap:round;stroke-linejoin:round"></line><line x1="162.39" y1="267.89" x2="191.8" y2="267.89" style="fill:none;stroke:#000;stroke-linecap:round;stroke-linejoin:round"></line><line x1="162.39" y1="274.73" x2="191.8" y2="274.73" style="fill:none;stroke:#000;stroke-linecap:round;stroke-linejoin:round"></line></g><g style="opacity:0.5"><line x1="369.64" y1="168.03" x2="399.05" y2="168.03" style="fill:none;stroke:#000;stroke-linecap:round;stroke-linejoin:round"></line><line x1="369.64" y1="174.87" x2="399.05" y2="174.87" style="fill:none;stroke:#000;stroke-linecap:round;stroke-linejoin:round"></line><line x1="369.64" y1="181.71" x2="399.05" y2="181.71" style="fill:none;stroke:#000;stroke-linecap:round;stroke-linejoin:round"></line><line x1="369.64" y1="188.55" x2="399.05" y2="188.55" style="fill:none;stroke:#000;stroke-linecap:round;stroke-linejoin:round"></line></g><path d="M262,233.34l-16.86,4.82,4.34,3.76c-7.89,5.19-24.6,14.08-35.53,5.05-14.66-12.11-10.71-22.58-10.54-23l-1.3-.52-1.29-.53c-.21.51-5,12.73,11.35,26.23a20.16,20.16,0,0,0,13.23,4.57c10.2,0,20.73-6.08,26.29-9.86l5.49,4.75Z" style="opacity:0.5"></path><polygon points="432.21 204.55 427.34 188.31 418.41 201.3 423.37 202.47 418.22 221 420.92 221.75 426.1 203.11 432.21 204.55" style="opacity:0.5"></polygon><path d="M208.22,174.18a4.11,4.11,0,1,0-4.1,4.11A4.11,4.11,0,0,0,208.22,174.18Z" style="fill:#fff;stroke:#000;stroke-linecap:round;stroke-linejoin:round;opacity:0.30000000000000004"></path><path d="M283.46,200.17a4.11,4.11,0,1,0-4.11,4.11A4.11,4.11,0,0,0,283.46,200.17Z" style="fill:#16A34A;stroke:#000;stroke-linecap:round;stroke-linejoin:round;opacity:0.30000000000000004"></path><circle cx="341.6" cy="194.02" r="4.1" style="fill:#fff;stroke:#000;stroke-linecap:round;stroke-linejoin:round;opacity:0.30000000000000004"></circle><path d="M359.38,250.79a4.11,4.11,0,1,0-4.11,4.1A4.11,4.11,0,0,0,359.38,250.79Z" style="fill:#fff;stroke:#000;stroke-linecap:round;stroke-linejoin:round;opacity:0.30000000000000004"></path><path d="M208.22,294.56a4.11,4.11,0,1,0-4.1,4.11A4.11,4.11,0,0,0,208.22,294.56Z" style="fill:#16A34A;stroke:#000;stroke-linecap:round;stroke-linejoin:round;opacity:0.30000000000000004"></path><circle cx="429.83" cy="154.35" r="4.1" style="fill:#16A34A;stroke:#000;stroke-linecap:round;stroke-linejoin:round;opacity:0.30000000000000004"></circle></g><g id="freepik--Device--inject-47"><rect x="327.16" y="336" width="142.84" height="104.53" style="fill:#263238;stroke:#263238;stroke-linecap:round;stroke-linejoin:round"></rect><rect x="334.05" y="341.04" width="129.06" height="94.45" style="fill:#fff;stroke:#263238;stroke-linecap:round;stroke-linejoin:round;opacity:0.25"></rect><rect x="386.92" y="436.51" width="25.62" height="20.49" style="fill:#263238;stroke:#263238;stroke-linecap:round;stroke-linejoin:round"></rect><line x1="337.88" y1="355.26" x2="458.65" y2="355.26" style="fill:none;stroke:#fff;stroke-linecap:round;stroke-linejoin:round"></line><line x1="339.35" y1="377.95" x2="368.18" y2="377.95" style="fill:none;stroke:#fff;stroke-linecap:round;stroke-linejoin:round"></line><line x1="357.37" y1="386" x2="373.75" y2="386" style="fill:none;stroke:#fff;stroke-linecap:round;stroke-linejoin:round"></line><line x1="339.35" y1="386" x2="355.08" y2="386" style="fill:none;stroke:#fff;stroke-linecap:round;stroke-linejoin:round"></line><line x1="366.22" y1="394.05" x2="394.07" y2="394.05" style="fill:none;stroke:#fff;stroke-linecap:round;stroke-linejoin:round"></line><line x1="339.35" y1="394.05" x2="362.61" y2="394.05" style="fill:none;stroke:#fff;stroke-linecap:round;stroke-linejoin:round"></line><line x1="339.35" y1="402.1" x2="356.06" y2="402.1" style="fill:none;stroke:#fff;stroke-linecap:round;stroke-linejoin:round"></line><line x1="355.41" y1="410.16" x2="373.75" y2="410.16" style="fill:none;stroke:#fff;stroke-linecap:round;stroke-linejoin:round"></line><line x1="339.35" y1="410.16" x2="350.82" y2="410.16" style="fill:none;stroke:#fff;stroke-linecap:round;stroke-linejoin:round"></line><line x1="402.58" y1="418.21" x2="410.77" y2="418.21" style="fill:none;stroke:#fff;stroke-linecap:round;stroke-linejoin:round"></line><line x1="351.48" y1="418.21" x2="397.67" y2="418.21" style="fill:none;stroke:#fff;stroke-linecap:round;stroke-linejoin:round"></line><line x1="339.35" y1="418.21" x2="347.87" y2="418.21" style="fill:none;stroke:#fff;stroke-linecap:round;stroke-linejoin:round"></line></g><g id="freepik--Plants--inject-47"><line x1="46.22" y1="301.39" x2="62.45" y2="456.9" style="fill:none;stroke:#263238;stroke-linecap:round;stroke-linejoin:round"></line><line x1="62.12" y1="454.03" x2="53.85" y2="445.34" style="fill:none;stroke:#263238;stroke-linecap:round;stroke-linejoin:round"></line><path d="M56.58,448.18A10.16,10.16,0,0,0,53,440.56c-2.31-2.05-14.43-7.16-15.59-2.89C36.17,442.32,48.59,451.44,56.58,448.18Z" style="fill:#16A34A;stroke:#263238;stroke-linecap:round;stroke-linejoin:round"></path><line x1="56.58" y1="448.18" x2="45.03" y2="440.98" style="fill:none;stroke:#263238;stroke-linecap:round;stroke-linejoin:round"></line><line x1="56.51" y1="400.02" x2="48.36" y2="392.68" style="fill:none;stroke:#263238;stroke-linecap:round;stroke-linejoin:round"></line><path d="M51.08,395.52a10.15,10.15,0,0,0-3.57-7.61c-2.3-2.06-14.43-7.16-15.58-2.89C30.68,389.66,43.09,398.79,51.08,395.52Z" style="fill:#16A34A;stroke:#263238;stroke-linecap:round;stroke-linejoin:round"></path><line x1="51.08" y1="395.52" x2="39.54" y2="388.33" style="fill:none;stroke:#263238;stroke-linecap:round;stroke-linejoin:round"></line><line x1="58.78" y1="422.96" x2="50.61" y2="414.26" style="fill:none;stroke:#263238;stroke-linecap:round;stroke-linejoin:round"></line><path d="M53.34,417.1a10.18,10.18,0,0,0-3.58-7.61c-2.3-2.06-14.43-7.16-15.58-2.89C32.93,411.24,45.34,420.37,53.34,417.1Z" style="fill:#16A34A;stroke:#263238;stroke-linecap:round;stroke-linejoin:round"></path><line x1="53.34" y1="417.1" x2="41.79" y2="409.91" style="fill:none;stroke:#263238;stroke-linecap:round;stroke-linejoin:round"></line><line x1="52.88" y1="365.96" x2="44.7" y2="357.63" style="fill:none;stroke:#263238;stroke-linecap:round;stroke-linejoin:round"></line><path d="M47.43,360.47a10.21,10.21,0,0,0-3.58-7.62c-2.3-2.05-14.43-7.15-15.58-2.88C27,354.61,39.43,363.73,47.43,360.47Z" style="fill:#16A34A;stroke:#263238;stroke-linecap:round;stroke-linejoin:round"></path><line x1="47.43" y1="360.47" x2="35.88" y2="353.28" style="fill:none;stroke:#263238;stroke-linecap:round;stroke-linejoin:round"></line><line x1="48.94" y1="328.48" x2="41.02" y2="322.42" style="fill:none;stroke:#263238;stroke-linecap:round;stroke-linejoin:round"></line><path d="M43.75,325.26a10.15,10.15,0,0,0-3.57-7.61c-2.31-2.06-14.43-7.16-15.58-2.89C23.35,319.41,35.76,328.53,43.75,325.26Z" style="fill:#16A34A;stroke:#263238;stroke-linecap:round;stroke-linejoin:round"></path><line x1="43.75" y1="325.26" x2="32.21" y2="318.07" style="fill:none;stroke:#263238;stroke-linecap:round;stroke-linejoin:round"></line><line x1="61.32" y1="442.05" x2="68.15" y2="430.92" style="fill:none;stroke:#263238;stroke-linecap:round;stroke-linejoin:round"></line><path d="M66.06,434.26A10.17,10.17,0,0,1,68,426.08c1.83-2.49,12.64-10,14.65-6.05C84.82,424.32,74.56,435.81,66.06,434.26Z" style="fill:#16A34A;stroke:#263238;stroke-linecap:round;stroke-linejoin:round"></path><line x1="66.06" y1="434.26" x2="74.19" y2="426.64" style="fill:none;stroke:#263238;stroke-linecap:round;stroke-linejoin:round"></line><line x1="55.39" y1="385.27" x2="62.22" y2="374.14" style="fill:none;stroke:#263238;stroke-linecap:round;stroke-linejoin:round"></line><path d="M60.14,377.48a10.16,10.16,0,0,1,1.92-8.19c1.83-2.49,10.29-8.72,12.3-4.78C76.54,368.79,68.63,379,60.14,377.48Z" style="fill:#16A34A;stroke:#263238;stroke-linecap:round;stroke-linejoin:round"></path><line x1="60.14" y1="377.48" x2="70.53" y2="367.54" style="fill:none;stroke:#263238;stroke-linecap:round;stroke-linejoin:round"></line><line x1="52.79" y1="360.31" x2="59.61" y2="349.18" style="fill:none;stroke:#263238;stroke-linecap:round;stroke-linejoin:round"></line><path d="M57.53,352.52a10.17,10.17,0,0,1,1.93-8.18c1.83-2.49,12.64-10,14.65-6C76.29,342.58,66,354.07,57.53,352.52Z" style="fill:#16A34A;stroke:#263238;stroke-linecap:round;stroke-linejoin:round"></path><line x1="57.53" y1="352.52" x2="67.93" y2="342.59" style="fill:none;stroke:#263238;stroke-linecap:round;stroke-linejoin:round"></line><line x1="48.97" y1="323.73" x2="55.8" y2="312.6" style="fill:none;stroke:#263238;stroke-linecap:round;stroke-linejoin:round"></line><path d="M53.71,315.94a10.19,10.19,0,0,1,1.93-8.19c1.83-2.49,12.64-10,14.65-6C72.47,306,62.21,317.48,53.71,315.94Z" style="fill:#16A34A;stroke:#263238;stroke-linecap:round;stroke-linejoin:round"></path><line x1="53.71" y1="315.94" x2="64.11" y2="306" style="fill:none;stroke:#263238;stroke-linecap:round;stroke-linejoin:round"></line><path d="M46.05,300.34A10.15,10.15,0,0,1,48,292.15c1.83-2.49,12.64-10,14.64-6C64.81,290.39,54.55,301.88,46.05,300.34Z" style="fill:#16A34A;stroke:#263238;stroke-linecap:round;stroke-linejoin:round"></path><line x1="46.05" y1="300.34" x2="56.45" y2="290.4" style="fill:none;stroke:#263238;stroke-linecap:round;stroke-linejoin:round"></line><path d="M46.65,300.77A10.2,10.2,0,0,1,38.71,298c-2.28-2.09-8.6-13.62-4.47-15.21C38.73,281.07,49.08,292.48,46.65,300.77Z" style="fill:#16A34A;stroke:#263238;stroke-linecap:round;stroke-linejoin:round"></path><line x1="46.65" y1="300.77" x2="37.86" y2="289.39" style="fill:none;stroke:#263238;stroke-linecap:round;stroke-linejoin:round"></line><line x1="75.88" y1="250.26" x2="75.88" y2="457.3" style="fill:none;stroke:#263238;stroke-linecap:round;stroke-linejoin:round"></line><line x1="98.45" y1="327.52" x2="84.87" y2="456.65" style="fill:none;stroke:#263238;stroke-linecap:round;stroke-linejoin:round"></line><line x1="88.48" y1="424.33" x2="81.72" y2="418.68" style="fill:none;stroke:#263238;stroke-linecap:round;stroke-linejoin:round"></line><path d="M83.82,420.64a10.16,10.16,0,0,0-1.92-8.19c-1.83-2.49-12.65-10-14.66-6C65.06,410.7,75.33,422.19,83.82,420.64Z" style="fill:#16A34A;stroke:#263238;stroke-linecap:round;stroke-linejoin:round"></path><line x1="83.82" y1="420.64" x2="74.01" y2="411.22" style="fill:none;stroke:#263238;stroke-linecap:round;stroke-linejoin:round"></line><line x1="85.96" y1="448.17" x2="79.5" y2="438.88" style="fill:none;stroke:#263238;stroke-linecap:round;stroke-linejoin:round"></line><path d="M81.59,442.22A10.19,10.19,0,0,0,79.66,434c-1.83-2.49-12.65-10-14.66-6C62.82,432.28,73.09,443.77,81.59,442.22Z" style="fill:#16A34A;stroke:#263238;stroke-linecap:round;stroke-linejoin:round"></path><line x1="81.59" y1="442.22" x2="71.77" y2="432.8" style="fill:none;stroke:#263238;stroke-linecap:round;stroke-linejoin:round"></line><line x1="91.9" y1="389.76" x2="85.38" y2="382.24" style="fill:none;stroke:#263238;stroke-linecap:round;stroke-linejoin:round"></line><path d="M87.46,385.58a10.15,10.15,0,0,0-1.93-8.19c-1.83-2.48-12.64-10-14.65-6C68.7,375.65,79,387.13,87.46,385.58Z" style="fill:#16A34A;stroke:#263238;stroke-linecap:round;stroke-linejoin:round"></path><line x1="87.46" y1="385.58" x2="77.65" y2="376.17" style="fill:none;stroke:#263238;stroke-linecap:round;stroke-linejoin:round"></line><line x1="95.32" y1="356.81" x2="89.03" y2="347.03" style="fill:none;stroke:#263238;stroke-linecap:round;stroke-linejoin:round"></line><path d="M91.12,350.37a10.17,10.17,0,0,0-1.93-8.18c-1.83-2.49-12.65-10-14.66-6C72.35,340.44,82.62,351.92,91.12,350.37Z" style="fill:#16A34A;stroke:#263238;stroke-linecap:round;stroke-linejoin:round"></path><line x1="91.12" y1="350.37" x2="81.3" y2="340.96" style="fill:none;stroke:#263238;stroke-linecap:round;stroke-linejoin:round"></line><line x1="90.15" y1="411.49" x2="99.12" y2="402" style="fill:none;stroke:#263238;stroke-linecap:round;stroke-linejoin:round"></line><path d="M96.4,404.84a10.15,10.15,0,0,1,3.57-7.61c2.3-2.06,14.42-7.17,15.58-2.9C116.8,399,104.39,408.1,96.4,404.84Z" style="fill:#16A34A;stroke:#263238;stroke-linecap:round;stroke-linejoin:round"></path><line x1="96.4" y1="404.84" x2="108.62" y2="397.26" style="fill:none;stroke:#263238;stroke-linecap:round;stroke-linejoin:round"></line><line x1="92.74" y1="386.53" x2="101.71" y2="377.05" style="fill:none;stroke:#263238;stroke-linecap:round;stroke-linejoin:round"></line><path d="M99,379.89a10.16,10.16,0,0,1,3.57-7.62c2.3-2.06,14.42-7.17,15.58-2.9C119.39,374,107,383.15,99,379.89Z" style="fill:#16A34A;stroke:#263238;stroke-linecap:round;stroke-linejoin:round"></path><line x1="98.99" y1="379.89" x2="111.21" y2="372.31" style="fill:none;stroke:#263238;stroke-linecap:round;stroke-linejoin:round"></line><line x1="96.44" y1="348.08" x2="105.51" y2="340.46" style="fill:none;stroke:#263238;stroke-linecap:round;stroke-linejoin:round"></line><path d="M102.79,343.3a10.16,10.16,0,0,1,3.56-7.61c2.31-2.06,14.43-7.17,15.58-2.9C123.19,337.43,110.78,346.56,102.79,343.3Z" style="fill:#16A34A;stroke:#263238;stroke-linecap:round;stroke-linejoin:round"></path><line x1="102.79" y1="343.3" x2="115" y2="335.72" style="fill:#16A34A;stroke:#263238;stroke-linecap:round;stroke-linejoin:round"></line><path d="M98.5,326.46a10.16,10.16,0,0,1,3.57-7.62c2.3-2.06,14.42-7.17,15.58-2.9C118.9,320.59,106.49,329.72,98.5,326.46Z" style="fill:#16A34A;stroke:#263238;stroke-linecap:round;stroke-linejoin:round"></path><line x1="98.5" y1="326.46" x2="110.72" y2="318.87" style="fill:none;stroke:#263238;stroke-linecap:round;stroke-linejoin:round"></line><path d="M99,327a10.15,10.15,0,0,1-7.2-4.35c-1.81-2.5-5.62-15.1-1.25-15.8C95.3,306.09,103.08,319.39,99,327Z" style="fill:#16A34A;stroke:#263238;stroke-linecap:round;stroke-linejoin:round"></path><line x1="99" y1="327" x2="92.74" y2="314.05" style="fill:none;stroke:#263238;stroke-linecap:round;stroke-linejoin:round"></line><line x1="75.55" y1="453.69" x2="68.13" y2="443.77" style="fill:none;stroke:#263238;stroke-linecap:round;stroke-linejoin:round"></line><path d="M70.55,446.87a10.15,10.15,0,0,0-2.77-7.94c-2.08-2.29-13.61-8.62-15.19-4.49C50.86,438.93,62.26,449.29,70.55,446.87Z" style="fill:#16A34A;stroke:#263238;stroke-linecap:round;stroke-linejoin:round"></path><line x1="70.55" y1="446.87" x2="59.81" y2="438.52" style="fill:none;stroke:#263238;stroke-linecap:round;stroke-linejoin:round"></line><line x1="75.81" y1="405.83" x2="68.13" y2="398.67" style="fill:none;stroke:#263238;stroke-linecap:round;stroke-linejoin:round"></line><path d="M70.55,401.78a10.15,10.15,0,0,0-2.77-7.94c-2.08-2.29-13.61-8.62-15.19-4.49C50.86,393.84,62.26,404.2,70.55,401.78Z" style="fill:#16A34A;stroke:#263238;stroke-linecap:round;stroke-linejoin:round"></path><line x1="70.55" y1="401.78" x2="59.81" y2="393.43" style="fill:none;stroke:#263238;stroke-linecap:round;stroke-linejoin:round"></line><line x1="76.07" y1="356.09" x2="68.13" y2="345.73" style="fill:none;stroke:#263238;stroke-linecap:round;stroke-linejoin:round"></line><path d="M70.55,348.84a10.17,10.17,0,0,0-2.77-7.95c-2.08-2.28-13.61-8.61-15.19-4.49C50.86,340.89,62.26,351.26,70.55,348.84Z" style="fill:#16A34A;stroke:#263238;stroke-linecap:round;stroke-linejoin:round"></path><line x1="70.55" y1="348.84" x2="59.81" y2="340.49" style="fill:none;stroke:#263238;stroke-linecap:round;stroke-linejoin:round"></line><line x1="75.55" y1="317.18" x2="68.13" y2="310.49" style="fill:none;stroke:#263238;stroke-linecap:round;stroke-linejoin:round"></line><path d="M70.55,313.6a10.17,10.17,0,0,0-2.77-8c-2.08-2.28-13.61-8.62-15.19-4.49C50.86,305.65,62.26,316,70.55,313.6Z" style="fill:#16A34A;stroke:#263238;stroke-linecap:round;stroke-linejoin:round"></path><line x1="70.55" y1="313.6" x2="59.81" y2="305.24" style="fill:none;stroke:#263238;stroke-linecap:round;stroke-linejoin:round"></line><line x1="75.98" y1="281.92" x2="68.28" y2="276.27" style="fill:none;stroke:#263238;stroke-linecap:round;stroke-linejoin:round"></line><path d="M70.55,278.2a10.17,10.17,0,0,0-2.77-7.95c-2.08-2.28-13.61-8.61-15.19-4.49C50.86,270.25,62.26,280.62,70.55,278.2Z" style="fill:#16A34A;stroke:#263238;stroke-linecap:round;stroke-linejoin:round"></path><line x1="70.55" y1="278.2" x2="59.81" y2="269.85" style="fill:none;stroke:#263238;stroke-linecap:round;stroke-linejoin:round"></line><line x1="75.9" y1="396.18" x2="83.84" y2="385.82" style="fill:none;stroke:#263238;stroke-linecap:round;stroke-linejoin:round"></line><path d="M81.42,388.93A10.17,10.17,0,0,1,84.19,381c2.07-2.28,13.61-8.62,15.19-4.49C101.11,381,89.71,391.34,81.42,388.93Z" style="fill:#16A34A;stroke:#263238;stroke-linecap:round;stroke-linejoin:round"></path><line x1="81.42" y1="388.93" x2="92.79" y2="380.12" style="fill:none;stroke:#263238;stroke-linecap:round;stroke-linejoin:round"></line><line x1="75.9" y1="360.78" x2="83.84" y2="350.42" style="fill:none;stroke:#263238;stroke-linecap:round;stroke-linejoin:round"></line><path d="M81.42,353.53a10.17,10.17,0,0,1,2.77-7.95c2.07-2.28,13.61-8.61,15.19-4.49C101.11,345.58,89.71,356,81.42,353.53Z" style="fill:#16A34A;stroke:#263238;stroke-linecap:round;stroke-linejoin:round"></path><line x1="81.42" y1="353.53" x2="92.79" y2="344.73" style="fill:none;stroke:#263238;stroke-linecap:round;stroke-linejoin:round"></line><line x1="75.9" y1="314" x2="83.84" y2="303.63" style="fill:none;stroke:#263238;stroke-linecap:round;stroke-linejoin:round"></line><path d="M81.42,306.74a10.15,10.15,0,0,1,2.77-7.94c2.07-2.29,13.61-8.62,15.19-4.49C101.11,298.8,89.71,309.16,81.42,306.74Z" style="fill:#16A34A;stroke:#263238;stroke-linecap:round;stroke-linejoin:round"></path><line x1="81.42" y1="306.74" x2="92.79" y2="297.94" style="fill:none;stroke:#263238;stroke-linecap:round;stroke-linejoin:round"></line><line x1="76.24" y1="273.62" x2="84.03" y2="267.54" style="fill:none;stroke:#263238;stroke-linecap:round;stroke-linejoin:round"></line><path d="M81.42,270A10.15,10.15,0,0,1,84.19,262c2.07-2.29,13.61-8.62,15.19-4.49C101.11,262,89.71,272.38,81.42,270Z" style="fill:#16A34A;stroke:#263238;stroke-linecap:round;stroke-linejoin:round"></path><line x1="81.42" y1="269.96" x2="92.79" y2="261.16" style="fill:none;stroke:#263238;stroke-linecap:round;stroke-linejoin:round"></line><path d="M75.42,253.65a10.18,10.18,0,0,1,2.76-8c2.08-2.28,13.61-8.62,15.2-4.49C95.11,245.7,83.71,256.07,75.42,253.65Z" style="fill:#16A34A;stroke:#263238;stroke-linecap:round;stroke-linejoin:round"></path><line x1="75.42" y1="253.65" x2="86.79" y2="244.84" style="fill:none;stroke:#263238;stroke-linecap:round;stroke-linejoin:round"></line><path d="M76,254.14a10.16,10.16,0,0,1-7.61-3.59c-2.06-2.3-7.15-14.43-2.88-15.58C70.14,233.72,79.25,246.15,76,254.14Z" style="fill:#16A34A;stroke:#263238;stroke-linecap:round;stroke-linejoin:round"></path><line x1="75.98" y1="254.14" x2="68.41" y2="241.9" style="fill:none;stroke:#263238;stroke-linecap:round;stroke-linejoin:round"></line><line x1="443" y1="457.67" x2="471" y2="457.67" style="fill:none;stroke:#263238;stroke-linecap:round;stroke-linejoin:round"></line><line x1="32.33" y1="457.67" x2="432" y2="457.67" style="fill:none;stroke:#263238;stroke-linecap:round;stroke-linejoin:round"></line></g><g id="freepik--light-bulb--inject-47"><path d="M269.65,63.83a30.07,30.07,0,1,0-53.18,19.23A29.54,29.54,0,0,1,223.32,102v4.12h32.51V102a29.47,29.47,0,0,1,6.84-18.9A30,30,0,0,0,269.65,63.83Z" style="fill:#fff;stroke:#263238;stroke-linecap:round;stroke-linejoin:round;stroke-width:2px"></path><rect x="223.32" y="106.11" width="32.51" height="8.04" style="fill:#fff;stroke:#263238;stroke-linecap:round;stroke-linejoin:round;stroke-width:2px"></rect><path d="M223.32,114.17h32.51a0,0,0,0,1,0,0v3.32a4.73,4.73,0,0,1-4.73,4.73H228a4.73,4.73,0,0,1-4.73-4.73v-3.32A0,0,0,0,1,223.32,114.17Z" style="fill:#fff;stroke:#263238;stroke-linecap:round;stroke-linejoin:round;stroke-width:2px"></path><path d="M227.42,122.2h24.3a0,0,0,0,1,0,0v1.63a6.41,6.41,0,0,1-6.41,6.41H233.83a6.41,6.41,0,0,1-6.41-6.41V122.2a0,0,0,0,1,0,0Z" style="fill:#fff;stroke:#263238;stroke-linecap:round;stroke-linejoin:round;stroke-width:2px"></path><line x1="273.91" y1="63.98" x2="287.69" y2="63.98" style="fill:none;stroke:#263238;stroke-linecap:round;stroke-linejoin:round;stroke-width:2px"></line><line x1="190.17" y1="63.98" x2="204.12" y2="63.98" style="fill:none;stroke:#263238;stroke-linecap:round;stroke-linejoin:round;stroke-width:2px"></line><line x1="238.93" y1="29.04" x2="238.93" y2="15.23" style="fill:none;stroke:#263238;stroke-linecap:round;stroke-linejoin:round;stroke-width:2px"></line><line x1="263.9" y1="39.01" x2="273.41" y2="29.51" style="fill:none;stroke:#263238;stroke-linecap:round;stroke-linejoin:round;stroke-width:2px"></line><line x1="204.45" y1="98.46" x2="214.1" y2="88.81" style="fill:none;stroke:#263238;stroke-linecap:round;stroke-linejoin:round;stroke-width:2px"></line><line x1="213.69" y1="38.74" x2="204.45" y2="29.51" style="fill:none;stroke:#263238;stroke-linecap:round;stroke-linejoin:round;stroke-width:2px"></line><line x1="273.41" y1="98.46" x2="264.21" y2="89.27" style="fill:none;stroke:#263238;stroke-linecap:round;stroke-linejoin:round;stroke-width:2px"></line></g><g id="freepik--Character--inject-47"><path d="M347.8,193.85s-6.78-14.65-7.6-16-1.63-9.5-1.08-11.94,7.32-10.85,7.32-10.85.81-17.35,1.9-22,.54-8.68,3.25-9.5,3.53-.54,3.8,3-.54,11.93-.54,12.74,1.35,13.29,1.35,13.29,12.75,13,14.11,14.38,3.52,4.34,1.35,11.39a34.67,34.67,0,0,1-6.24,11.66l1.09,5.43-18.71,1.35Z" style="fill:#fff;stroke:#263238;stroke-linecap:round;stroke-linejoin:round"></path><path d="M346.44,186.8s-6.51-7.05-8.41-11.12-1.35-13.83-.54-15.19,7.32-4.61,8.95-5.43,12.75-1.62,15.19-3,5.15,2.71,1.63,6.24-14.11,6.51-14.11,6.51,7.87,5.42,6,13.29" style="fill:#fff;stroke:#263238;stroke-linecap:round;stroke-linejoin:round"></path><path d="M366.68,153.65s-5.54,15-2.9,16.9,5.81,1.32,6.6-1.58,5-10,4.49-13.74S369.59,150,366.68,153.65Z" style="fill:#fff;stroke:#263238;stroke-linecap:round;stroke-linejoin:round"></path><path d="M373.8,158.67s-4.49,12.19-2.35,13.69,4.71,1.07,5.35-1.28,4.06-8.13,3.64-11.13S376.16,155.67,373.8,158.67Z" style="fill:#fff;stroke:#263238;stroke-linecap:round;stroke-linejoin:round"></path><path d="M360.27,149.37s-5.69,15.46-3,17.36,6,1.35,6.78-1.63,5.15-10.31,4.61-14.1S363.26,145.57,360.27,149.37Z" style="fill:#fff;stroke:#263238;stroke-linecap:round;stroke-linejoin:round"></path><polygon points="346.71 202.53 344.81 190.87 368.14 188.69 372.2 202.53 346.71 202.53" style="fill:#16A34A;stroke:#263238;stroke-linecap:round;stroke-linejoin:round"></polygon><path d="M159.57,457.67,176.5,373.5,183,457.67H303.51c.14-5.42,2-77.66,1.49-90.17-.5-13,6-35,6-35s80.5-17,91-24,4.5-16,3.5-21S375,204.5,374,201s-5.5-3-10-3-20,1-20,4,8.5,76,8.5,76h-4l-1.5,3.5L325.5,277s-16-12-21.5-12.5L266,261H210.5s-62,29-66.5,34.5-4.5,24-4.5,24l-14,138.17Z" style="fill:#16A34A;stroke:#263238;stroke-linecap:round;stroke-linejoin:round"></path><line x1="271.05" y1="417.14" x2="276" y2="410.5" style="fill:none;stroke:#263238;stroke-linecap:round;stroke-linejoin:round"></line><path d="M242.69,455.24C251,443,260,432,268.74,420.25" style="fill:none;stroke:#263238;stroke-linecap:round;stroke-linejoin:round"></path><path d="M279.51,412.26c-4.45,8.16-11.76,20.38-20,29.24" style="fill:none;stroke:#263238;stroke-linecap:round;stroke-linejoin:round"></path><path d="M284,403.5s-.92,2-2.56,5.13" style="fill:none;stroke:#263238;stroke-linecap:round;stroke-linejoin:round"></path><line x1="318.57" y1="303.43" x2="321.67" y2="291.5" style="fill:none;stroke:#263238;stroke-linecap:round;stroke-linejoin:round"></line><line x1="311" y1="332.5" x2="317.48" y2="307.63" style="fill:none;stroke:#263238;stroke-linecap:round;stroke-linejoin:round"></line><line x1="314.25" y1="319.87" x2="327.24" y2="295.74" style="fill:none;stroke:#263238;stroke-linecap:round;stroke-linejoin:round"></line><path d="M365.36,294.52q.78,1.2,1.38,2.28" style="fill:none;stroke:#263238;stroke-linecap:round;stroke-linejoin:round"></path><path d="M356.93,295.74A34.67,34.67,0,0,1,352.5,278s5.81,6.59,10.38,12.9" style="fill:none;stroke:#263238;stroke-linecap:round;stroke-linejoin:round"></path><path d="M163.2,316.91c-1.29-2.75-2.32-4.81-2.32-4.81" style="fill:none;stroke:#263238;stroke-linecap:round;stroke-linejoin:round"></path><path d="M176.5,373.5s-7.07-40.75-8.86-46.09c-.64-1.94-1.71-4.49-2.81-7" style="fill:none;stroke:#263238;stroke-linecap:round;stroke-linejoin:round"></path><path d="M165,337.09a96.31,96.31,0,0,0-4.79-8.61l-8.9-12.82" style="fill:none;stroke:#263238;stroke-linecap:round;stroke-linejoin:round"></path><path d="M173,353.4s-3.31-7-6.69-13.69" style="fill:none;stroke:#263238;stroke-linecap:round;stroke-linejoin:round"></path><polygon points="225.67 287.67 236.33 303.33 221.33 421.33 241 440.67 256 418 243.33 302 254 286 238.33 273.33 225.67 287.67" style="fill:#263238;stroke:#263238;stroke-linecap:round;stroke-linejoin:round"></polygon><polygon points="235.67 281.33 216.33 303 206.33 265.33 214 253 220.33 252.33 259.67 253 272.67 265 264 301.67 242.33 280 235.67 281.33" style="fill:#16A34A;stroke:#263238;stroke-linecap:round;stroke-linejoin:round"></polygon><path d="M215,239.33,216.33,259s19.34,25.33,22,25.33,21.34-27,21.34-27l.33-17Z" style="fill:#fff;stroke:#263238;stroke-linecap:round;stroke-linejoin:round"></path><path d="M205.67,212.33s-3.67-11.33-8.34-4S203,227,205,228.33l2,1.34Z" style="fill:#fff;stroke:#263238;stroke-linecap:round;stroke-linejoin:round"></path><path d="M270.67,212.33s3.66-11.33,8.33-4-5.67,18.67-7.67,20l-2,1.34Z" style="fill:#fff;stroke:#263238;stroke-linecap:round;stroke-linejoin:round"></path><path d="M205,211s1,23,4.5,28S225,256.5,234,258.5s12.5,0,19.5-4.5S270,240.5,271,235s1-28.5,1-28.5l-2-24s-1-14-18-20-30.5-10-36,0-12.5,21-12.5,21Z" style="fill:#fff;stroke:#263238;stroke-linecap:round;stroke-linejoin:round"></path><path d="M233.5,228.28a25.67,25.67,0,0,0,20.38-3.66" style="fill:none;stroke:#263238;stroke-linecap:round;stroke-linejoin:round"></path><line x1="218.35" y1="205.29" x2="227.76" y2="207.38" style="fill:none;stroke:#263238;stroke-linecap:round;stroke-linejoin:round"></line><line x1="251.79" y1="207.9" x2="262.76" y2="204.77" style="fill:none;stroke:#263238;stroke-linecap:round;stroke-linejoin:round"></line><path d="M224,170s-1,11-7,15.5L207,193l1,18.5-3-.5-1.5-12s-6-16-6-27.5,9-18.5,12.5-19a49.52,49.52,0,0,1,9,0s7-10,25.5-11,33,18.5,31,22l-2,3.5a34,34,0,0,1,4,15c0,8-5,15.5-5,15.5V213l-4-17s-3.5-10.5-4.5-12.5-11.5-1-17.5-3.5-10.5-9.5-10.5-9.5,5,9.5,1,9.5S224,170,224,170Z" style="fill:#263238;stroke:#263238;stroke-linecap:round;stroke-linejoin:round"></path><path d="M261,219c-4-2-20.67-6.33-20.67-6.33s-19.66,5.33-22.66,8.66-.34,20,3,26.34,7,11.66,17.33,12S259,254,260.67,248,265,221,261,219Zm-6.33,24c-2.67,4.67-8.67,4.33-9,1.67S245.33,239,242,239s-2.33,1.33-2,5-4.33,6.33-9.33,3.33S223.33,232,223.33,228s17.34-9.67,17.34-9.67,14.66.67,16.66,4.67S257.33,238.33,254.67,243Z" style="fill:#263238;stroke:#263238;stroke-linecap:round;stroke-linejoin:round"></path><ellipse cx="225.83" cy="200" rx="1.5" ry="3.33" style="fill:#263238"></ellipse><ellipse cx="252.5" cy="200" rx="1.5" ry="3.33" style="fill:#263238"></ellipse><path d="M219,190.67s3.67-7,14.67-4.67" style="fill:none;stroke:#263238;stroke-linecap:round;stroke-linejoin:round;stroke-width:4px"></path><path d="M247.33,185.33s8.34-3.66,15.34,4.34" style="fill:none;stroke:#263238;stroke-linecap:round;stroke-linejoin:round;stroke-width:4px"></path><polyline points="244.67 188.33 245.33 214.67 232.67 211.33" style="fill:#fff;stroke:#263238;stroke-linecap:round;stroke-linejoin:round"></polyline></g></svg>
